STARTFONT 2.3
FONT -FontForge-Courgette-Book-R-Normal--9-90-72-72-P-47-ISO10646-1
SIZE 9 72 72  4
FONTBOUNDINGBOX 12 13 -2 -3
COMMENT "Generated by fontforge, http://fontforge.sourceforge.net"
COMMENT "Copyright (c) 2012, Sorkin Type Co (www.sorkintype.com) with Reserved Font Name "Courgette"."
STARTPROPERTIES 41
FOUNDRY "FontForge"
FAMILY_NAME "Courgette"
WEIGHT_NAME "Book"
SLANT "R"
SETWIDTH_NAME "Normal"
ADD_STYLE_NAME ""
PIXEL_SIZE 9
POINT_SIZE 90
RESOLUTION_X 72
RESOLUTION_Y 72
SPACING "P"
AVERAGE_WIDTH 47
CHARSET_REGISTRY "ISO10646"
CHARSET_ENCODING "1"
FONTNAME_REGISTRY ""
CHARSET_COLLECTIONS "ISO8859-2 ISO8859-9 ISO8859-4 ISO10646-1"
BITS_PER_PIXEL 4
FONT_NAME "Courgette-Regular"
FACE_NAME "Courgette Regular"
COPYRIGHT "Copyright (c) 2012, Sorkin Type Co (www.sorkintype.com) with Reserved Font Name "Courgette"."
FONT_VERSION "1.002"
FONT_ASCENT 7
FONT_DESCENT 2
UNDERLINE_POSITION -1
UNDERLINE_THICKNESS 1
X_HEIGHT 4
CAP_HEIGHT 7
DEFAULT_CHAR 1
RAW_ASCENT 799
RAW_DESCENT 200
NORM_SPACE 3
RELATIVE_WEIGHT 40
RELATIVE_SETWIDTH 50
SUPERSCRIPT_X 0
SUPERSCRIPT_Y 4
SUPERSCRIPT_SIZE 5
SUBSCRIPT_X 0
SUBSCRIPT_Y 1
SUBSCRIPT_SIZE 5
AVG_LOWERCASE_WIDTH 45
AVG_UPPERCASE_WIDTH 53
ENDPROPERTIES
CHARS 407
STARTCHAR .null.dup1
ENCODING 0
SWIDTH 0 0
DWIDTH 0 0
BBX 1 1 0 0
BITMAP
00
ENDCHAR
STARTCHAR uni0001
ENCODING 1
SWIDTH 0 0
DWIDTH 0 0
BBX 1 1 0 0
BITMAP
00
ENDCHAR
STARTCHAR uni0002
ENCODING 2
SWIDTH 0 0
DWIDTH 0 0
BBX 1 1 0 0
BITMAP
00
ENDCHAR
STARTCHAR uni0003
ENCODING 3
SWIDTH 0 0
DWIDTH 0 0
BBX 1 1 0 0
BITMAP
00
ENDCHAR
STARTCHAR uni0004
ENCODING 4
SWIDTH 0 0
DWIDTH 0 0
BBX 1 1 0 0
BITMAP
00
ENDCHAR
STARTCHAR uni0005
ENCODING 5
SWIDTH 0 0
DWIDTH 0 0
BBX 1 1 0 0
BITMAP
00
ENDCHAR
STARTCHAR uni0006
ENCODING 6
SWIDTH 0 0
DWIDTH 0 0
BBX 1 1 0 0
BITMAP
00
ENDCHAR
STARTCHAR uni0007
ENCODING 7
SWIDTH 0 0
DWIDTH 0 0
BBX 1 1 0 0
BITMAP
00
ENDCHAR
STARTCHAR uni0008
ENCODING 8
SWIDTH 0 0
DWIDTH 0 0
BBX 1 1 0 0
BITMAP
00
ENDCHAR
STARTCHAR uni0009
ENCODING 9
SWIDTH 0 0
DWIDTH 0 0
BBX 1 1 0 0
BITMAP
00
ENDCHAR
STARTCHAR nonmarkingreturn
ENCODING 13
SWIDTH 0 0
DWIDTH 0 0
BBX 1 1 0 0
BITMAP
00
ENDCHAR
STARTCHAR uni0015
ENCODING 21
SWIDTH 0 0
DWIDTH 0 0
BBX 1 1 0 0
BITMAP
00
ENDCHAR
STARTCHAR uni0016
ENCODING 22
SWIDTH 0 0
DWIDTH 0 0
BBX 1 1 0 0
BITMAP
00
ENDCHAR
STARTCHAR uni0017
ENCODING 23
SWIDTH 0 0
DWIDTH 0 0
BBX 1 1 0 0
BITMAP
00
ENDCHAR
STARTCHAR uni0018
ENCODING 24
SWIDTH 0 0
DWIDTH 0 0
BBX 1 1 0 0
BITMAP
00
ENDCHAR
STARTCHAR uni0019
ENCODING 25
SWIDTH 0 0
DWIDTH 0 0
BBX 1 1 0 0
BITMAP
00
ENDCHAR
STARTCHAR space
ENCODING 32
SWIDTH 307 0
DWIDTH 3 0
BBX 1 1 0 0
BITMAP
00
ENDCHAR
STARTCHAR exclam
ENCODING 33
SWIDTH 417 0
DWIDTH 4 0
BBX 4 8 0 0
BITMAP
003D
00B7
01E1
0590
0830
0300
3E10
0400
ENDCHAR
STARTCHAR quotedbl
ENCODING 34
SWIDTH 437 0
DWIDTH 4 0
BBX 4 3 1 6
BITMAP
2534
95B3
8080
ENDCHAR
STARTCHAR numbersign
ENCODING 35
SWIDTH 725 0
DWIDTH 7 0
BBX 7 8 0 0
BITMAP
00082B00
000C2A00
00396600
0AEDFD30
00A1B000
5DEDE900
04682000
07180000
ENDCHAR
STARTCHAR dollar
ENCODING 36
SWIDTH 545 0
DWIDTH 5 0
BBX 6 11 0 -2
BITMAP
0000A1
007BB0
04A0A2
0A61D2
0A8590
04E100
01A700
665800
3DA200
0A0000
030000
ENDCHAR
STARTCHAR percent
ENCODING 37
SWIDTH 876 0
DWIDTH 8 0
BBX 8 8 0 0
BITMAP
06A602A0
2C3A0B30
49867800
1983B000
000C2880
008687A3
04A0C2D1
0A107A60
ENDCHAR
STARTCHAR ampersand
ENCODING 38
SWIDTH 563 0
DWIDTH 5 0
BBX 6 8 0 0
BITMAP
01AB90
0B80B1
1E08B0
0C7310
1D7100
893FA0
A50B00
4B9300
ENDCHAR
STARTCHAR quotesingle
ENCODING 39
SWIDTH 231 0
DWIDTH 2 0
BBX 2 3 1 6
BITMAP
25
95
80
ENDCHAR
STARTCHAR parenleft
ENCODING 40
SWIDTH 478 0
DWIDTH 4 0
BBX 5 12 1 -2
BITMAP
000320
005900
02B000
0B3000
4A0000
950000
D20000
E00000
E00000
D10000
850000
1B0000
ENDCHAR
STARTCHAR parenright
ENCODING 41
SWIDTH 478 0
DWIDTH 4 0
BBX 5 12 -1 -2
BITMAP
003200
001C00
000A40
000770
000780
000870
000B40
001E10
006800
01C100
094000
750000
ENDCHAR
STARTCHAR asterisk
ENCODING 42
SWIDTH 518 0
DWIDTH 5 0
BBX 4 4 1 4
BITMAP
0590
7B94
3D60
4180
ENDCHAR
STARTCHAR plus
ENCODING 43
SWIDTH 617 0
DWIDTH 6 0
BBX 5 5 0 1
BITMAP
006200
007200
3BDBA0
007200
007100
ENDCHAR
STARTCHAR comma
ENCODING 44
SWIDTH 312 0
DWIDTH 3 0
BBX 2 3 0 -1
BITMAP
78
68
91
ENDCHAR
STARTCHAR hyphen
ENCODING 45
SWIDTH 452 0
DWIDTH 4 0
BBX 4 1 0 3
BITMAP
2DD4
ENDCHAR
STARTCHAR period
ENCODING 46
SWIDTH 270 0
DWIDTH 2 0
BBX 2 2 0 -1
BITMAP
A8
32
ENDCHAR
STARTCHAR slash
ENCODING 47
SWIDTH 405 0
DWIDTH 4 0
BBX 7 11 -1 -2
BITMAP
00000410
00001C00
00008500
0001C000
00085000
001B0000
00840000
01B00000
09400000
2B000000
83000000
ENDCHAR
STARTCHAR zero
ENCODING 48
SWIDTH 621 0
DWIDTH 6 0
BBX 6 8 0 0
BITMAP
002AB3
01D249
088059
0E2097
3C00D2
5905B0
571C30
1BB400
ENDCHAR
STARTCHAR one
ENCODING 49
SWIDTH 405 0
DWIDTH 4 0
BBX 4 8 0 0
BITMAP
0098
0AD8
0095
00D1
03A0
0840
0B00
4400
ENDCHAR
STARTCHAR two
ENCODING 50
SWIDTH 524 0
DWIDTH 5 0
BBX 5 8 0 0
BITMAP
01BB50
0951B0
0B55A0
022D30
00B700
0A8000
680200
B9DC00
ENDCHAR
STARTCHAR three
ENCODING 51
SWIDTH 537 0
DWIDTH 5 0
BBX 5 8 0 0
BITMAP
01AB70
0960D0
0B63C0
023C50
00EA00
012D00
864A00
5BB200
ENDCHAR
STARTCHAR four
ENCODING 52
SWIDTH 529 0
DWIDTH 5 0
BBX 5 8 0 0
BITMAP
01C000
04C000
088330
0E2870
5A0C30
3ABE50
008400
019000
ENDCHAR
STARTCHAR five
ENCODING 53
SWIDTH 540 0
DWIDTH 5 0
BBX 6 8 0 0
BITMAP
00BCB6
01C361
077000
0CCD20
060A60
120B40
943D00
5AA200
ENDCHAR
STARTCHAR six
ENCODING 54
SWIDTH 554 0
DWIDTH 5 0
BBX 6 8 0 0
BITMAP
004BB1
02C2C1
0A5030
1E8A20
4F2670
6B0870
490C20
0AA400
ENDCHAR
STARTCHAR seven
ENCODING 55
SWIDTH 473 0
DWIDTH 4 0
BBX 4 7 1 1
BITMAP
BEAC
00A3
0770
2C00
A500
E100
5000
ENDCHAR
STARTCHAR eight
ENCODING 56
SWIDTH 524 0
DWIDTH 5 0
BBX 5 8 0 0
BITMAP
00AE60
0684E0
0951C0
06B950
04F600
3B6900
861A00
3B8200
ENDCHAR
STARTCHAR nine
ENCODING 57
SWIDTH 554 0
DWIDTH 5 0
BBX 5 8 0 0
BITMAP
01AB80
0870E0
0D12D0
0E09B0
07AB80
000B20
773A00
5A9100
ENDCHAR
STARTCHAR colon
ENCODING 58
SWIDTH 312 0
DWIDTH 3 0
BBX 3 5 0 -1
BITMAP
0D40
0300
0000
9900
2200
ENDCHAR
STARTCHAR semicolon
ENCODING 59
SWIDTH 312 0
DWIDTH 3 0
BBX 3 6 0 -1
BITMAP
0D50
0310
0000
7800
6800
9100
ENDCHAR
STARTCHAR less
ENCODING 60
SWIDTH 637 0
DWIDTH 6 0
BBX 5 6 0 0
BITMAP
000010
0007A0
04B500
3E4000
02A800
0005B0
ENDCHAR
STARTCHAR equal
ENCODING 61
SWIDTH 617 0
DWIDTH 6 0
BBX 6 3 0 2
BITMAP
2ABBA1
000000
2BBBA0
ENDCHAR
STARTCHAR greater
ENCODING 62
SWIDTH 606 0
DWIDTH 5 0
BBX 6 6 0 0
BITMAP
120000
1A7000
006B40
0007C1
02B700
391000
ENDCHAR
STARTCHAR question
ENCODING 63
SWIDTH 516 0
DWIDTH 5 0
BBX 5 8 0 0
BITMAP
009970
03C0C0
0167A0
007D10
04D200
073000
160000
3D1000
ENDCHAR
STARTCHAR at
ENCODING 64
SWIDTH 905 0
DWIDTH 8 0
BBX 8 8 0 -1
BITMAP
0018BB91
03B3005A
0C15993B
584A1D0B
85959766
76595A60
2C200000
03A98100
ENDCHAR
STARTCHAR A
ENCODING 65
SWIDTH 615 0
DWIDTH 6 0
BBX 7 8 -1 0
BITMAP
00001AB0
0000A790
00084A40
002B1E00
02CDDE60
02B08700
0A40A400
79008C10
ENDCHAR
STARTCHAR B
ENCODING 66
SWIDTH 551 0
DWIDTH 5 0
BBX 6 8 0 0
BITMAP
08CAA1
186095
08A0B4
0E37C0
4FBE10
760940
840C30
4BA500
ENDCHAR
STARTCHAR C
ENCODING 67
SWIDTH 533 0
DWIDTH 5 0
BBX 6 8 0 0
BITMAP
003BB2
03D266
0B51D3
2E0370
690000
880000
790300
1CA900
ENDCHAR
STARTCHAR D
ENCODING 68
SWIDTH 630 0
DWIDTH 6 0
BBX 6 8 0 0
BITMAP
0ACB91
055079
04D02C
0A604A
1E1096
5A03D1
872D30
5CB300
ENDCHAR
STARTCHAR E
ENCODING 69
SWIDTH 509 0
DWIDTH 5 0
BBX 6 8 0 0
BITMAP
008CA1
07B1B3
0D3790
0D1000
09E400
5D1000
970800
4BB500
ENDCHAR
STARTCHAR F
ENCODING 70
SWIDTH 518 0
DWIDTH 5 0
BBX 6 8 0 0
BITMAP
2DC505
784DC4
32A500
00E200
08FE40
098000
0D2000
760000
ENDCHAR
STARTCHAR G
ENCODING 71
SWIDTH 598 0
DWIDTH 5 0
BBX 6 8 0 0
BITMAP
003BB2
02D257
0B60B5
2E04D0
6A0100
871CE3
780930
1CA600
ENDCHAR
STARTCHAR H
ENCODING 72
SWIDTH 668 0
DWIDTH 6 0
BBX 8 8 -1 0
BITMAP
01CC0083
001E00C3
004C00E0
009903B0
01E31A20
02C01D00
09604A00
2A004D30
ENDCHAR
STARTCHAR I
ENCODING 73
SWIDTH 327 0
DWIDTH 3 0
BBX 4 8 0 0
BITMAP
0BD1
00E1
02E0
05A0
0960
0E10
6900
B100
ENDCHAR
STARTCHAR J
ENCODING 74
SWIDTH 393 0
DWIDTH 4 0
BBX 6 11 -2 -3
BITMAP
002AC9
00584B
000079
0000B5
0001E1
0005B0
000B60
002E10
009700
04C000
4B1000
ENDCHAR
STARTCHAR K
ENCODING 75
SWIDTH 616 0
DWIDTH 6 0
BBX 7 8 -1 0
BITMAP
03D904A0
004C05B0
00690C40
00A69500
00EC4000
04C89000
0A61E400
4A006D30
ENDCHAR
STARTCHAR L
ENCODING 76
SWIDTH 517 0
DWIDTH 5 0
BBX 6 8 -1 0
BITMAP
0003B9
000D2B
005B3D
00B6D5
01E100
05A000
0B4330
1EBAC1
ENDCHAR
STARTCHAR M
ENCODING 77
SWIDTH 931 0
DWIDTH 8 0
BBX 10 8 -1 0
BITMAP
00006E12C5
00049C0AC2
000B6857D0
0056A5B690
00B1D57950
0580E91D20
0C11E80E00
9600D10BB0
ENDCHAR
STARTCHAR N
ENCODING 78
SWIDTH 708 0
DWIDTH 6 0
BBX 7 8 0 0
BITMAP
005B05B0
01CB02E0
087B04A0
0B3C0850
481E0B00
840E5600
B20AD100
A003A000
ENDCHAR
STARTCHAR O
ENCODING 79
SWIDTH 655 0
DWIDTH 6 0
BBX 6 8 0 0
BITMAP
002BB7
02D30D
09800E
1E102D
5B0079
6800D3
580880
1AA800
ENDCHAR
STARTCHAR P
ENCODING 80
SWIDTH 553 0
DWIDTH 5 0
BBX 7 8 -1 0
BITMAP
007CAA10
00A50770
002D0870
00884D10
00DCA200
03C00000
09600000
2A000000
ENDCHAR
STARTCHAR Q
ENCODING 81
SWIDTH 655 0
DWIDTH 6 0
BBX 7 10 0 -2
BITMAP
003BA600
02D10C00
0B501E00
1D004C00
4B00A600
4C04D000
093C3000
07E80000
002BA110
00008C40
ENDCHAR
STARTCHAR R
ENCODING 82
SWIDTH 623 0
DWIDTH 6 0
BBX 7 8 -1 0
BITMAP
007CBA10
00780680
003D0780
00883D20
00CDB300
02E99000
0881E200
2B106D20
ENDCHAR
STARTCHAR S
ENCODING 83
SWIDTH 474 0
DWIDTH 4 0
BBX 5 8 0 0
BITMAP
01BB60
0950D0
0E14C0
0E3840
09B000
11E200
A29300
7B8000
ENDCHAR
STARTCHAR T
ENCODING 84
SWIDTH 471 0
DWIDTH 4 0
BBX 6 8 0 0
BITMAP
1DC605
592EC5
237A00
00B500
00E100
04B000
0A5000
3A0000
ENDCHAR
STARTCHAR U
ENCODING 85
SWIDTH 624 0
DWIDTH 6 0
BBX 7 8 0 0
BITMAP
03E00B20
02D03D00
07809800
0D21F300
3B08E000
862BB000
C3968000
9C33D400
ENDCHAR
STARTCHAR V
ENCODING 86
SWIDTH 587 0
DWIDTH 5 0
BBX 7 8 0 0
BITMAP
1CD20A50
02A50960
02E10D20
08808800
0D24B000
2C2B1000
4AB10000
1D300000
ENDCHAR
STARTCHAR W
ENCODING 87
SWIDTH 941 0
DWIDTH 8 0
BBX 9 8 0 0
BITMAP
2CD10005B0
02C30413E0
04D07D12D0
0A74F604A0
0E2CE10950
4B85D01C00
5A91C0A400
2D10BA4000
ENDCHAR
STARTCHAR X
ENCODING 88
SWIDTH 552 0
DWIDTH 5 0
BBX 8 8 -1 0
BITMAP
000C02C3
002E0C30
001E8600
000EA000
000E4000
008D6000
0595C000
4B10BB00
ENDCHAR
STARTCHAR Y
ENCODING 89
SWIDTH 580 0
DWIDTH 5 0
BBX 7 11 0 -3
BITMAP
03D00B20
03D03D00
0880A800
0D22F300
4B08D000
962C9000
C39A4000
9C4C0000
00860000
03B00000
4A100000
ENDCHAR
STARTCHAR Z
ENCODING 90
SWIDTH 501 0
DWIDTH 5 0
BBX 7 8 -1 0
BITMAP
00804D30
00AFCE20
00018700
0006A000
004D1000
02D30000
0B600000
1E9DD100
ENDCHAR
STARTCHAR bracketleft
ENCODING 91
SWIDTH 396 0
DWIDTH 4 0
BBX 5 11 0 -2
BITMAP
000A50
004A00
009500
00D100
03B000
086000
0D2000
2C0000
770000
C30000
B60000
ENDCHAR
STARTCHAR backslash
ENCODING 92
SWIDTH 464 0
DWIDTH 4 0
BBX 4 11 0 -2
BITMAP
4100
6500
3800
0B00
0B10
0740
0470
01A0
00B0
0092
0045
ENDCHAR
STARTCHAR bracketright
ENCODING 93
SWIDTH 394 0
DWIDTH 4 0
BBX 6 11 -1 -2
BITMAP
0004B1
0000D0
000490
000950
000D10
003A00
008600
00C100
02B000
077000
3A2000
ENDCHAR
STARTCHAR asciicircum
ENCODING 94
SWIDTH 540 0
DWIDTH 5 0
BBX 5 4 0 4
BITMAP
008500
02DB00
094930
190180
ENDCHAR
STARTCHAR underscore
ENCODING 95
SWIDTH 530 0
DWIDTH 5 0
BBX 7 1 -2 -2
BITMAP
4CCCCC40
ENDCHAR
STARTCHAR grave
ENCODING 96
SWIDTH 219 0
DWIDTH 2 0
BBX 2 3 0 5
BITMAP
85
75
03
ENDCHAR
STARTCHAR a
ENCODING 97
SWIDTH 541 0
DWIDTH 5 0
BBX 5 5 0 0
BITMAP
04BAB0
2D1A60
871E10
A48B00
6C5C50
ENDCHAR
STARTCHAR b
ENCODING 98
SWIDTH 525 0
DWIDTH 5 0
BBX 5 8 0 0
BITMAP
02A000
069000
094000
0D9D20
3E2A60
780C40
934C00
5BA200
ENDCHAR
STARTCHAR c
ENCODING 99
SWIDTH 465 0
DWIDTH 4 0
BBX 5 5 0 0
BITMAP
05BB00
2D1D10
871500
A50200
5CA200
ENDCHAR
STARTCHAR d
ENCODING 100
SWIDTH 557 0
DWIDTH 5 0
BBX 6 8 0 0
BITMAP
00002A
000086
0000D1
03BAB0
1C1870
680D30
966E00
5C6B80
ENDCHAR
STARTCHAR e
ENCODING 101
SWIDTH 471 0
DWIDTH 4 0
BBX 5 5 0 0
BITMAP
04BB00
2D1D10
7BB600
970200
4CB400
ENDCHAR
STARTCHAR f
ENCODING 102
SWIDTH 393 0
DWIDTH 4 0
BBX 6 10 -1 -1
BITMAP
000296
000B4C
001C46
005900
03CE90
02E100
02C000
078000
0B3000
1B0000
ENDCHAR
STARTCHAR g
ENCODING 103
SWIDTH 526 0
DWIDTH 5 0
BBX 5 8 0 -3
BITMAP
04A970
2D1870
880D30
A57D00
5CB800
00B200
196000
120000
ENDCHAR
STARTCHAR h
ENCODING 104
SWIDTH 555 0
DWIDTH 5 0
BBX 5 8 0 0
BITMAP
00C000
02D000
059000
096D70
0C9880
3E2D20
963C00
C12D40
ENDCHAR
STARTCHAR i
ENCODING 105
SWIDTH 286 0
DWIDTH 3 0
BBX 3 8 0 0
BITMAP
05C0
0120
0000
0D30
0D10
4900
9400
9A00
ENDCHAR
STARTCHAR j
ENCODING 106
SWIDTH 281 0
DWIDTH 3 0
BBX 5 11 -2 -3
BITMAP
000880
000210
000000
001E20
000E10
001D00
005900
009400
01C000
085000
480000
ENDCHAR
STARTCHAR k
ENCODING 107
SWIDTH 497 0
DWIDTH 4 0
BBX 5 8 0 0
BITMAP
00C000
02D000
059000
094960
0C3C30
3EB200
98D000
C09C10
ENDCHAR
STARTCHAR l
ENCODING 108
SWIDTH 279 0
DWIDTH 3 0
BBX 3 8 0 0
BITMAP
01B0
03B0
0770
0B20
1C00
6800
9400
8B00
ENDCHAR
STARTCHAR m
ENCODING 109
SWIDTH 814 0
DWIDTH 7 0
BBX 7 5 0 0
BITMAP
0D4D69C0
0DA6C5D0
3E2A7870
972D0D10
C1570B80
ENDCHAR
STARTCHAR n
ENCODING 110
SWIDTH 561 0
DWIDTH 5 0
BBX 5 5 0 0
BITMAP
0D5D80
0DA780
3E2C30
972C00
C11D50
ENDCHAR
STARTCHAR o
ENCODING 111
SWIDTH 514 0
DWIDTH 5 0
BBX 5 5 0 0
BITMAP
05AB10
2D1A40
880D20
A55B00
5BA200
ENDCHAR
STARTCHAR p
ENCODING 112
SWIDTH 550 0
DWIDTH 5 0
BBX 6 8 -1 -3
BITMAP
01D7C5
01F669
04C087
0771D1
0BAB30
0C0000
490000
840000
ENDCHAR
STARTCHAR q
ENCODING 113
SWIDTH 533 0
DWIDTH 5 0
BBX 5 8 0 -3
BITMAP
03B970
1D1890
780D40
966D00
5CA900
008400
00C100
00A100
ENDCHAR
STARTCHAR r
ENCODING 114
SWIDTH 407 0
DWIDTH 4 0
BBX 4 5 0 0
BITMAP
1E4D
0D84
3E10
8700
B200
ENDCHAR
STARTCHAR s
ENCODING 115
SWIDTH 423 0
DWIDTH 4 0
BBX 4 5 0 0
BITMAP
09A8
1D16
0C60
54C0
AA60
ENDCHAR
STARTCHAR t
ENCODING 116
SWIDTH 358 0
DWIDTH 3 0
BBX 4 7 0 0
BITMAP
0050
02D0
1DC6
0D20
2C00
4920
2D80
ENDCHAR
STARTCHAR u
ENCODING 117
SWIDTH 553 0
DWIDTH 5 0
BBX 5 5 0 0
BITMAP
0C32B0
0D1A70
5B3E10
A69B00
AB2D40
ENDCHAR
STARTCHAR v
ENCODING 118
SWIDTH 510 0
DWIDTH 5 0
BBX 5 5 0 0
BITMAP
0C3950
0D1860
4A0B20
954800
8B7000
ENDCHAR
STARTCHAR w
ENCODING 119
SWIDTH 750 0
DWIDTH 7 0
BBX 7 5 0 0
BITMAP
1D334770
0D1C4590
2B5D0750
889B1A00
991DA100
ENDCHAR
STARTCHAR x
ENCODING 120
SWIDTH 467 0
DWIDTH 4 0
BBX 6 5 -1 0
BITMAP
00C1A5
00EA40
00B700
03D900
1A1D70
ENDCHAR
STARTCHAR y
ENCODING 121
SWIDTH 549 0
DWIDTH 5 0
BBX 5 8 0 -3
BITMAP
0C41C0
0D2890
4B2E40
969D00
9C7800
01C100
2A4000
110000
ENDCHAR
STARTCHAR z
ENCODING 122
SWIDTH 430 0
DWIDTH 4 0
BBX 5 5 0 0
BITMAP
0B9D10
009900
099000
791000
CAC300
ENDCHAR
STARTCHAR braceleft
ENCODING 123
SWIDTH 424 0
DWIDTH 4 0
BBX 5 11 0 -2
BITMAP
000670
001D00
004A00
007600
00D200
1C5000
0B2000
0D1000
3B0000
770000
480000
ENDCHAR
STARTCHAR bar
ENCODING 124
SWIDTH 306 0
DWIDTH 3 0
BBX 1 11 1 -2
BITMAP
40
C0
C0
C0
C0
C0
C0
C0
C0
C0
A0
ENDCHAR
STARTCHAR braceright
ENCODING 125
SWIDTH 424 0
DWIDTH 4 0
BBX 5 11 -1 -2
BITMAP
000480
0001D0
000690
000A40
000B20
002B50
00A400
01D000
04A000
095000
390000
ENDCHAR
STARTCHAR asciitilde
ENCODING 126
SWIDTH 624 0
DWIDTH 6 0
BBX 6 2 0 2
BITMAP
0AD535
535DA0
ENDCHAR
STARTCHAR nonbreakingspace
ENCODING 160
SWIDTH 293 0
DWIDTH 3 0
BBX 1 1 0 0
BITMAP
00
ENDCHAR
STARTCHAR exclamdown
ENCODING 161
SWIDTH 417 0
DWIDTH 4 0
BBX 4 9 0 -2
BITMAP
0010
00D5
0041
0550
0C10
3B00
8800
B500
6200
ENDCHAR
STARTCHAR cent
ENCODING 162
SWIDTH 487 0
DWIDTH 4 0
BBX 5 8 0 0
BITMAP
000830
004C00
079930
1E1B10
4B0000
4B0600
0BB400
080000
ENDCHAR
STARTCHAR sterling
ENCODING 163
SWIDTH 665 0
DWIDTH 6 0
BBX 8 8 -1 0
BITMAP
00003BA0
0000C3A1
0004C3D0
00097950
007EB300
003D0000
09CA1010
2BA5DD30
ENDCHAR
STARTCHAR currency
ENCODING 164
SWIDTH 572 0
DWIDTH 5 0
BBX 6 7 0 0
BITMAP
006011
01D9B1
078580
0E1880
0D1D20
3B9A00
100200
ENDCHAR
STARTCHAR yen
ENCODING 165
SWIDTH 583 0
DWIDTH 5 0
BBX 7 8 0 0
BITMAP
4D101C40
09709A00
03B2D100
00B95000
00AC0000
07DA2000
1AE90000
02900000
ENDCHAR
STARTCHAR brokenbar
ENCODING 166
SWIDTH 292 0
DWIDTH 3 0
BBX 1 11 1 -2
BITMAP
60
C0
C0
C0
A0
00
60
C0
C0
C0
A0
ENDCHAR
STARTCHAR section
ENCODING 167
SWIDTH 583 0
DWIDTH 5 0
BBX 6 11 0 -2
BITMAP
002991
00B476
00E3D4
00C830
0A8D00
2D0C40
1F2960
0ACB10
12E000
C0D000
7A4000
ENDCHAR
STARTCHAR dieresis
ENCODING 168
SWIDTH 412 0
DWIDTH 4 0
BBX 4 2 0 6
BITMAP
8979
2222
ENDCHAR
STARTCHAR copyright
ENCODING 169
SWIDTH 871 0
DWIDTH 8 0
BBX 8 8 0 0
BITMAP
003BCB40
03B201C1
0B149566
292C2A47
47777465
398511B1
0B4A9960
02ABB500
ENDCHAR
STARTCHAR ordfeminine
ENCODING 170
SWIDTH 564 0
DWIDTH 5 0
BBX 4 5 1 3
BITMAP
0699
685A
D1A5
E3E1
9987
ENDCHAR
STARTCHAR guillemotleft
ENCODING 171
SWIDTH 662 0
DWIDTH 6 0
BBX 6 4 0 1
BITMAP
018265
2C4A60
2C2C30
0492B0
ENDCHAR
STARTCHAR logicalnot
ENCODING 172
SWIDTH 729 0
DWIDTH 7 0
BBX 6 4 0 0
BITMAP
2BBBB9
00001B
00001A
000003
ENDCHAR
STARTCHAR uni00AD
ENCODING 173
SWIDTH 833 0
DWIDTH 8 0
BBX 1 1 0 0
BITMAP
00
ENDCHAR
STARTCHAR registered
ENCODING 174
SWIDTH 742 0
DWIDTH 7 0
BBX 7 7 0 1
BITMAP
006AA600
06997830
0A36B360
285D5460
18966820
0A307800
029A7000
ENDCHAR
STARTCHAR macron
ENCODING 175
SWIDTH 392 0
DWIDTH 4 0
BBX 4 1 0 6
BITMAP
3DD7
ENDCHAR
STARTCHAR degree
ENCODING 176
SWIDTH 405 0
DWIDTH 4 0
BBX 3 4 1 4
BITMAP
4990
C1D0
C590
4600
ENDCHAR
STARTCHAR plusminus
ENCODING 177
SWIDTH 617 0
DWIDTH 6 0
BBX 5 7 0 0
BITMAP
006200
008200
3BDBA0
008200
007100
000000
3BBBA0
ENDCHAR
STARTCHAR twosuperior
ENCODING 178
SWIDTH 458 0
DWIDTH 4 0
BBX 5 5 0 3
BITMAP
03AB10
076B30
007A00
087100
3BB600
ENDCHAR
STARTCHAR threesuperior
ENCODING 179
SWIDTH 430 0
DWIDTH 4 0
BBX 5 5 0 3
BITMAP
02AB10
045C20
00C600
377700
188100
ENDCHAR
STARTCHAR acute
ENCODING 180
SWIDTH 322 0
DWIDTH 3 0
BBX 2 2 1 5
BITMAP
3A
A2
ENDCHAR
STARTCHAR mu
ENCODING 181
SWIDTH 618 0
DWIDTH 6 0
BBX 7 8 -1 -3
BITMAP
00480A30
00C33D00
03C0C700
0896D300
0CD57A00
1B000000
39000000
37000000
ENDCHAR
STARTCHAR paragraph
ENCODING 182
SWIDTH 739 0
DWIDTH 7 0
BBX 8 9 0 -1
BITMAP
0006BDD6
00BFD3C0
03FF9690
02FF6950
005F2C10
003D2B00
25786600
A6C2B100
6A416000
ENDCHAR
STARTCHAR periodcentered
ENCODING 183
SWIDTH 353 0
DWIDTH 3 0
BBX 2 2 1 2
BITMAP
C6
31
ENDCHAR
STARTCHAR cedilla
ENCODING 184
SWIDTH 301 0
DWIDTH 3 0
BBX 3 3 0 -2
BITMAP
0400
0910
3C00
ENDCHAR
STARTCHAR onesuperior
ENCODING 185
SWIDTH 403 0
DWIDTH 4 0
BBX 3 5 1 3
BITMAP
0A80
7C60
0D10
4900
9100
ENDCHAR
STARTCHAR ordmasculine
ENCODING 186
SWIDTH 498 0
DWIDTH 4 0
BBX 4 5 1 3
BITMAP
0892
7767
E196
D1D1
7930
ENDCHAR
STARTCHAR guillemotright
ENCODING 187
SWIDTH 665 0
DWIDTH 6 0
BBX 6 4 0 1
BITMAP
0B2850
03C1C3
06B4C2
472810
ENDCHAR
STARTCHAR onequarter
ENCODING 188
SWIDTH 988 0
DWIDTH 9 0
BBX 7 8 1 0
BITMAP
0B506500
BE41C000
0D186500
3A1B3B00
948487A0
91B0D2D0
0840AB80
1A000900
ENDCHAR
STARTCHAR onehalf
ENCODING 189
SWIDTH 988 0
DWIDTH 9 0
BBX 8 8 1 0
BITMAP
0A506500
9F41C000
4C085000
391B2AB2
938467A4
61B006C0
08406910
1A02FC70
ENDCHAR
STARTCHAR threequarters
ENCODING 190
SWIDTH 1007 0
DWIDTH 9 0
BBX 9 8 0 0
BITMAP
059901A000
0B2D085000
02B62B4000
13C194C100
94C3B2C320
3949385A30
002A05AD20
0082006300
ENDCHAR
STARTCHAR questiondown
ENCODING 191
SWIDTH 516 0
DWIDTH 5 0
BBX 5 9 0 -2
BITMAP
000100
002F10
000500
005600
04D200
4E4000
C49100
C0D100
595000
ENDCHAR
STARTCHAR Agrave
ENCODING 192
SWIDTH 615 0
DWIDTH 6 0
BBX 7 10 -1 0
BITMAP
00000500
00000A40
00001AB0
0000A790
00084A40
002B1E00
02CDDE60
02B08700
0A40A400
79008C10
ENDCHAR
STARTCHAR Aacute
ENCODING 193
SWIDTH 615 0
DWIDTH 6 0
BBX 8 10 -1 0
BITMAP
00000052
000002A1
00001AB0
0000A790
00084A40
002B1E00
02CDDE60
02B08700
0A40A400
79008C10
ENDCHAR
STARTCHAR Acircumflex
ENCODING 194
SWIDTH 615 0
DWIDTH 6 0
BBX 8 10 -1 0
BITMAP
00000270
000039A3
00001AB0
0000A790
00084A40
002B1E00
02CDDE60
02B08700
0A40A400
79008C10
ENDCHAR
STARTCHAR Atilde
ENCODING 195
SWIDTH 615 0
DWIDTH 6 0
BBX 8 10 -1 0
BITMAP
00002D46
000063C4
00001AB0
0000A790
00084A40
002B1E00
02CDDE60
02B08700
0A40A400
79008C10
ENDCHAR
STARTCHAR Adieresis
ENCODING 196
SWIDTH 615 0
DWIDTH 6 0
BBX 8 10 -1 0
BITMAP
00003435
00005757
00001AB0
0000A790
00084A40
002B1E00
02CDDE60
02B08700
0A40A400
79008C10
ENDCHAR
STARTCHAR Aring
ENCODING 197
SWIDTH 615 0
DWIDTH 6 0
BBX 8 10 -1 0
BITMAP
00000692
00000C84
00001DE0
0000A790
00084A40
002B1E00
02CDDE60
02B08700
0A40A400
79008C10
ENDCHAR
STARTCHAR AE
ENCODING 198
SWIDTH 878 0
DWIDTH 8 0
BBX 10 8 -1 0
BITMAP
00002BDCA4
0000B5E268
00076882C1
001C085000
01BDEFF700
03C01D5000
0A404C0620
69001BD900
ENDCHAR
STARTCHAR Ccedilla
ENCODING 199
SWIDTH 533 0
DWIDTH 5 0
BBX 6 10 0 -2
BITMAP
003BB2
02D257
0B61D4
2E0370
6A0000
880000
790300
1CA900
055000
0C3000
ENDCHAR
STARTCHAR Egrave
ENCODING 200
SWIDTH 509 0
DWIDTH 5 0
BBX 6 10 0 0
BITMAP
000500
000A40
008CA1
07B1B3
0D3790
0D1000
09E400
5D1000
970800
4BB500
ENDCHAR
STARTCHAR Eacute
ENCODING 201
SWIDTH 509 0
DWIDTH 5 0
BBX 6 10 0 0
BITMAP
000052
0002B1
008CA1
07B1B3
0D3790
0D1000
09E400
5D1000
970800
4BB500
ENDCHAR
STARTCHAR Ecircumflex
ENCODING 202
SWIDTH 509 0
DWIDTH 5 0
BBX 6 10 0 0
BITMAP
000170
0039A3
008CA1
07B1B3
0D3790
0D1000
09E400
5D1000
970800
4BB500
ENDCHAR
STARTCHAR Edieresis
ENCODING 203
SWIDTH 509 0
DWIDTH 5 0
BBX 6 10 0 0
BITMAP
003535
005757
008CA1
07B1B3
0D3790
0D1000
09E400
5D1000
970800
4BB500
ENDCHAR
STARTCHAR Igrave
ENCODING 204
SWIDTH 327 0
DWIDTH 3 0
BBX 4 10 0 0
BITMAP
0140
01B2
0BD1
00E1
02E0
05A0
0960
0E10
6900
B100
ENDCHAR
STARTCHAR Iacute
ENCODING 205
SWIDTH 327 0
DWIDTH 3 0
BBX 5 10 0 0
BITMAP
000610
004A00
0BD100
00E100
02E000
05A000
096000
0E1000
690000
B10000
ENDCHAR
STARTCHAR Icircumflex
ENCODING 206
SWIDTH 327 0
DWIDTH 3 0
BBX 5 10 0 0
BITMAP
003600
058C10
0BD100
00E100
02E000
05A000
096000
0E1000
690000
B10000
ENDCHAR
STARTCHAR Idieresis
ENCODING 207
SWIDTH 327 0
DWIDTH 3 0
BBX 5 10 0 0
BITMAP
053430
084850
0BD100
00E100
02E000
05A000
096000
0E1000
690000
B10000
ENDCHAR
STARTCHAR Eth
ENCODING 208
SWIDTH 630 0
DWIDTH 6 0
BBX 6 8 0 0
BITMAP
1BCB91
056088
06B04B
8FD759
2E00A5
6904D0
963D30
6BB200
ENDCHAR
STARTCHAR Ntilde
ENCODING 209
SWIDTH 708 0
DWIDTH 6 0
BBX 8 10 0 0
BITMAP
0000AA42
00024A80
005B05B0
01CB02E0
087B04A0
0B3C0850
481E0B00
840E5600
B20AD100
A003A000
ENDCHAR
STARTCHAR Ograve
ENCODING 210
SWIDTH 655 0
DWIDTH 6 0
BBX 6 10 0 0
BITMAP
000140
0001B2
002BB7
02D30D
09800E
1E102D
5B0079
6800D3
580880
1AA800
ENDCHAR
STARTCHAR Oacute
ENCODING 211
SWIDTH 655 0
DWIDTH 6 0
BBX 7 10 0 0
BITMAP
00000610
00004A00
002BB700
02D30D00
09800E00
1E102D00
5B007900
6800D300
58088000
1AA80000
ENDCHAR
STARTCHAR Ocircumflex
ENCODING 212
SWIDTH 655 0
DWIDTH 6 0
BBX 7 10 0 0
BITMAP
00003600
00058B10
002BB700
02D30D00
09800E00
1E102D00
5B007900
6800D300
58088000
1AA80000
ENDCHAR
STARTCHAR Otilde
ENCODING 213
SWIDTH 655 0
DWIDTH 6 0
BBX 7 10 0 0
BITMAP
0004D260
00065C20
002BB700
02D30D00
09800E00
1E102D00
5B007900
6800D300
58088000
1AA80000
ENDCHAR
STARTCHAR Odieresis
ENCODING 214
SWIDTH 655 0
DWIDTH 6 0
BBX 7 10 0 0
BITMAP
00043430
00075750
002BB700
02D30D00
09800E00
1E102D00
5B007900
6800D300
58088000
1AA80000
ENDCHAR
STARTCHAR multiply
ENCODING 215
SWIDTH 573 0
DWIDTH 5 0
BBX 4 4 1 1
BITMAP
A146
3BA0
2B80
A165
ENDCHAR
STARTCHAR Oslash
ENCODING 216
SWIDTH 655 0
DWIDTH 6 0
BBX 7 10 0 -1
BITMAP
00000430
0019CE10
00B79C30
05C28A40
0B581D20
0E273D00
2C819700
1D74C000
0CBA1000
18000000
ENDCHAR
STARTCHAR Ugrave
ENCODING 217
SWIDTH 624 0
DWIDTH 6 0
BBX 7 10 0 0
BITMAP
00041000
00068000
03E00B20
02D03D00
07809800
0D21F300
3B08E000
862BB000
C3968000
9C33D400
ENDCHAR
STARTCHAR Uacute
ENCODING 218
SWIDTH 624 0
DWIDTH 6 0
BBX 7 10 0 0
BITMAP
00002500
0000A400
03E00B20
02D03D00
07809800
0D21F300
3B08E000
862BB000
C3968000
9C33D400
ENDCHAR
STARTCHAR Ucircumflex
ENCODING 219
SWIDTH 624 0
DWIDTH 6 0
BBX 7 10 0 0
BITMAP
00007100
001A8800
03E00B20
02D03D00
07809800
0D21F300
3B08E000
862BB000
C3968000
9C33D400
ENDCHAR
STARTCHAR Udieresis
ENCODING 220
SWIDTH 624 0
DWIDTH 6 0
BBX 7 10 0 0
BITMAP
00161700
002A2A00
03E00B20
02D03D00
07809800
0D21F300
3B08E000
862BB000
C3968000
9C33D400
ENDCHAR
STARTCHAR Yacute
ENCODING 221
SWIDTH 580 0
DWIDTH 5 0
BBX 7 13 0 -3
BITMAP
00002400
0000A300
03D00B20
03D03D00
0880A800
0D22F300
4B08D000
962C9000
C39A4000
9C4C0000
00860000
03B00000
4A100000
ENDCHAR
STARTCHAR Thorn
ENCODING 222
SWIDTH 527 0
DWIDTH 5 0
BBX 6 8 -1 0
BITMAP
03D900
004B00
006D93
00A52C
00E16A
04EAB2
0B5100
490000
ENDCHAR
STARTCHAR germandbls
ENCODING 223
SWIDTH 520 0
DWIDTH 5 0
BBX 6 10 -1 -2
BITMAP
0006A5
003B0C
009559
00D2B1
02C760
0695C0
0973B4
0D5CA1
3C0000
330000
ENDCHAR
STARTCHAR agrave
ENCODING 224
SWIDTH 541 0
DWIDTH 5 0
BBX 5 8 0 0
BITMAP
005800
004800
000400
04BAB0
2D1A60
871E10
A48B00
6C5C50
ENDCHAR
STARTCHAR aacute
ENCODING 225
SWIDTH 541 0
DWIDTH 5 0
BBX 5 8 0 0
BITMAP
000420
001C20
003200
04BAB0
2D1A60
871E10
A48B00
6C5C50
ENDCHAR
STARTCHAR acircumflex
ENCODING 226
SWIDTH 541 0
DWIDTH 5 0
BBX 5 8 0 0
BITMAP
000220
005A80
015050
04BAB0
2D1A60
871E10
A48B00
6C5C50
ENDCHAR
STARTCHAR atilde
ENCODING 227
SWIDTH 541 0
DWIDTH 5 0
BBX 6 8 0 0
BITMAP
00AA42
023A80
000000
04BAB0
2D1A60
871E10
A48B00
6C5C50
ENDCHAR
STARTCHAR adieresis
ENCODING 228
SWIDTH 541 0
DWIDTH 5 0
BBX 6 8 0 0
BITMAP
02E2E1
003030
000000
04BAB0
2D1A60
871E10
A48B00
6C5C50
ENDCHAR
STARTCHAR aring
ENCODING 229
SWIDTH 541 0
DWIDTH 5 0
BBX 5 8 0 0
BITMAP
004970
00A490
005820
04BAB0
2D1A60
871E10
A48B00
6C5C50
ENDCHAR
STARTCHAR ae
ENCODING 230
SWIDTH 769 0
DWIDTH 7 0
BBX 7 5 0 0
BITMAP
04BADB80
2C1A85B0
871E8D30
A47F3110
6C58BA10
ENDCHAR
STARTCHAR ccedilla
ENCODING 231
SWIDTH 465 0
DWIDTH 4 0
BBX 5 7 0 -2
BITMAP
05BB00
3D1D10
971500
A50200
3CA200
091000
3C0000
ENDCHAR
STARTCHAR egrave
ENCODING 232
SWIDTH 471 0
DWIDTH 4 0
BBX 5 8 0 0
BITMAP
00A300
009300
001300
04BB00
2D1D10
7BB600
970200
4CB400
ENDCHAR
STARTCHAR eacute
ENCODING 233
SWIDTH 471 0
DWIDTH 4 0
BBX 5 8 0 0
BITMAP
000700
004B00
005100
04BB00
2D1D10
7BB600
970200
4CB400
ENDCHAR
STARTCHAR ecircumflex
ENCODING 234
SWIDTH 471 0
DWIDTH 4 0
BBX 5 8 0 0
BITMAP
000400
017C30
042330
04BB00
2D1D10
7BB600
970200
4CB400
ENDCHAR
STARTCHAR edieresis
ENCODING 235
SWIDTH 471 0
DWIDTH 4 0
BBX 5 8 0 0
BITMAP
07A6A0
012120
000000
04AC00
2C3C00
795100
961500
4DB300
ENDCHAR
STARTCHAR igrave
ENCODING 236
SWIDTH 286 0
DWIDTH 3 0
BBX 3 8 0 0
BITMAP
0940
0840
0130
0D30
0D10
4900
9400
9A00
ENDCHAR
STARTCHAR iacute
ENCODING 237
SWIDTH 286 0
DWIDTH 3 0
BBX 3 8 0 0
BITMAP
0060
03C0
0410
0D30
0D10
4900
9400
9A00
ENDCHAR
STARTCHAR icircumflex
ENCODING 238
SWIDTH 286 0
DWIDTH 3 0
BBX 4 8 0 0
BITMAP
0030
07C4
3323
0D30
0D10
4900
9400
9A00
ENDCHAR
STARTCHAR idieresis
ENCODING 239
SWIDTH 286 0
DWIDTH 3 0
BBX 4 8 0 0
BITMAP
5B5B
1212
0000
0D30
0D10
4900
9400
9A00
ENDCHAR
STARTCHAR eth
ENCODING 240
SWIDTH 524 0
DWIDTH 5 0
BBX 6 8 0 0
BITMAP
000630
0008D5
0024B0
04BBA0
1D1870
780D30
956A00
5CA100
ENDCHAR
STARTCHAR ntilde
ENCODING 241
SWIDTH 561 0
DWIDTH 5 0
BBX 6 8 0 0
BITMAP
00AA42
024A80
000000
0D5D80
0DA780
3E2C30
972C00
C11D50
ENDCHAR
STARTCHAR ograve
ENCODING 242
SWIDTH 514 0
DWIDTH 5 0
BBX 5 8 0 0
BITMAP
004900
003A00
000400
05AB10
2D1A40
880D20
A55B00
5BA200
ENDCHAR
STARTCHAR oacute
ENCODING 243
SWIDTH 514 0
DWIDTH 5 0
BBX 5 8 0 0
BITMAP
000330
000B30
003300
05AB10
2D1A40
880D20
A55B00
5BA200
ENDCHAR
STARTCHAR ocircumflex
ENCODING 244
SWIDTH 514 0
DWIDTH 5 0
BBX 5 8 0 0
BITMAP
000220
004A90
015050
05AB10
2D1A40
880D20
A55B00
5BA200
ENDCHAR
STARTCHAR otilde
ENCODING 245
SWIDTH 514 0
DWIDTH 5 0
BBX 6 8 0 0
BITMAP
009B33
015990
000000
05AB10
2D1A40
880D20
A55B00
5BA200
ENDCHAR
STARTCHAR odieresis
ENCODING 246
SWIDTH 514 0
DWIDTH 5 0
BBX 6 8 0 0
BITMAP
01E2E2
003030
000000
05AB10
2D1A40
880D20
A55B00
5BA200
ENDCHAR
STARTCHAR divide
ENCODING 247
SWIDTH 617 0
DWIDTH 6 0
BBX 6 5 0 1
BITMAP
005500
003300
2ABBA1
001000
00A500
ENDCHAR
STARTCHAR oslash
ENCODING 248
SWIDTH 514 0
DWIDTH 5 0
BBX 5 7 0 -1
BITMAP
000580
05AF20
2D6C40
887D30
AC5B00
6DA200
720000
ENDCHAR
STARTCHAR ugrave
ENCODING 249
SWIDTH 553 0
DWIDTH 5 0
BBX 5 8 0 0
BITMAP
002B00
001C00
000400
0C32B0
0D1A70
5B3E10
A69B00
AB2D40
ENDCHAR
STARTCHAR uacute
ENCODING 250
SWIDTH 553 0
DWIDTH 5 0
BBX 5 8 0 0
BITMAP
000250
000960
001400
0C32B0
0D1A70
5B3E10
A69B00
AB2D40
ENDCHAR
STARTCHAR ucircumflex
ENCODING 251
SWIDTH 553 0
DWIDTH 5 0
BBX 5 8 0 0
BITMAP
000130
0029C0
006150
0C32B0
0D1A70
5B3E10
A69B00
AB2D40
ENDCHAR
STARTCHAR udieresis
ENCODING 252
SWIDTH 553 0
DWIDTH 5 0
BBX 6 8 0 0
BITMAP
00C4C5
003030
000000
0C32B0
0D1A70
5B3E10
A69B00
AB2D40
ENDCHAR
STARTCHAR yacute
ENCODING 253
SWIDTH 549 0
DWIDTH 5 0
BBX 5 11 0 -3
BITMAP
000430
000C30
003200
0C41C0
0D2890
4B2E40
969D00
9C7800
01C100
2A4000
110000
ENDCHAR
STARTCHAR thorn
ENCODING 254
SWIDTH 552 0
DWIDTH 5 0
BBX 6 11 -1 -3
BITMAP
000B00
001D00
005800
009AC5
00D669
02C087
0771D1
0BAB30
1C0000
680000
A20000
ENDCHAR
STARTCHAR ydieresis
ENCODING 255
SWIDTH 549 0
DWIDTH 5 0
BBX 6 11 0 -3
BITMAP
01E2E2
003030
000000
0C41C0
0D2890
4B2E40
969D00
9C7800
01C100
2A4000
110000
ENDCHAR
STARTCHAR Amacron
ENCODING 256
SWIDTH 615 0
DWIDTH 6 0
BBX 8 9 -1 0
BITMAP
00005DD6
00001AB0
0000A790
00084A40
002B1E00
02CDDE60
02B08700
0A40A400
79008C10
ENDCHAR
STARTCHAR amacron
ENCODING 257
SWIDTH 543 0
DWIDTH 5 0
BBX 5 7 0 0
BITMAP
01CDA0
000000
04BAB0
2D1A60
871E10
A58B00
6C5C50
ENDCHAR
STARTCHAR Abreve
ENCODING 258
SWIDTH 615 0
DWIDTH 6 0
BBX 8 10 -1 0
BITMAP
00000504
00000BB3
00001AB0
0000A790
00084A40
002B1E00
02CDDE60
02B08700
0A40A400
79008C10
ENDCHAR
STARTCHAR abreve
ENCODING 259
SWIDTH 543 0
DWIDTH 5 0
BBX 5 8 0 0
BITMAP
009180
006C50
000000
04BAB0
2D1A60
871E10
A58B00
6C5C50
ENDCHAR
STARTCHAR Aogonek
ENCODING 260
SWIDTH 615 0
DWIDTH 6 0
BBX 7 10 -1 -2
BITMAP
00001AB0
0000A790
00084A40
002B1E00
02CDDE60
02B08700
0A40A400
79008A10
00019000
0003C200
ENDCHAR
STARTCHAR aogonek
ENCODING 261
SWIDTH 541 0
DWIDTH 5 0
BBX 5 7 0 -2
BITMAP
04BAB0
2D1A60
871E10
A48B00
6C5E50
004600
008900
ENDCHAR
STARTCHAR Cacute
ENCODING 262
SWIDTH 533 0
DWIDTH 5 0
BBX 6 10 0 0
BITMAP
000007
000059
003BB2
03D266
0B51D3
2E0370
690000
880000
790300
1CA900
ENDCHAR
STARTCHAR cacute
ENCODING 263
SWIDTH 468 0
DWIDTH 4 0
BBX 5 8 0 0
BITMAP
000060
000780
000500
05BB00
2D1D10
871500
A50200
4DA200
ENDCHAR
STARTCHAR Ccircumflex
ENCODING 264
SWIDTH 533 0
DWIDTH 5 0
BBX 6 10 0 0
BITMAP
000045
00068C
003BB2
03D266
0B51D3
2E0370
690000
880000
790300
1CA900
ENDCHAR
STARTCHAR ccircumflex
ENCODING 265
SWIDTH 468 0
DWIDTH 4 0
BBX 5 8 0 0
BITMAP
000220
005A80
015050
05BB00
2D1D10
871500
A50200
4DA200
ENDCHAR
STARTCHAR Cdotaccent
ENCODING 266
SWIDTH 533 0
DWIDTH 5 0
BBX 6 10 0 0
BITMAP
000070
0001B1
003BB2
03D266
0B51D3
2E0370
690000
880000
790300
1CA900
ENDCHAR
STARTCHAR cdotaccent
ENCODING 267
SWIDTH 468 0
DWIDTH 4 0
BBX 5 8 0 0
BITMAP
001E10
000300
000000
05BB00
2D1D10
871500
A50200
4DA200
ENDCHAR
STARTCHAR Ccaron
ENCODING 268
SWIDTH 533 0
DWIDTH 5 0
BBX 7 10 0 0
BITMAP
00033230
0001B610
003BB200
03D26600
0B51D300
2E037000
69000000
88000000
79030000
1CA90000
ENDCHAR
STARTCHAR ccaron
ENCODING 269
SWIDTH 468 0
DWIDTH 4 0
BBX 6 8 0 0
BITMAP
007455
004C80
000100
05BB00
2D1D10
871500
A50200
4DA200
ENDCHAR
STARTCHAR Dcaron
ENCODING 270
SWIDTH 630 0
DWIDTH 6 0
BBX 6 10 0 0
BITMAP
000615
000693
0ACB91
055079
04D02C
0A604A
1E1096
5A03D1
872D30
5CB300
ENDCHAR
STARTCHAR dcaron
ENCODING 271
SWIDTH 557 0
DWIDTH 5 0
BBX 8 8 0 0
BITMAP
00002A94
000086A1
0000D220
03BAB000
1C187000
680D3000
966E0000
5C6B8000
ENDCHAR
STARTCHAR Dcroat
ENCODING 272
SWIDTH 630 0
DWIDTH 6 0
BBX 6 8 0 0
BITMAP
1BCB91
056088
05C04B
7FF659
2E00A5
6904D0
963D30
6BB200
ENDCHAR
STARTCHAR dcroat
ENCODING 273
SWIDTH 557 0
DWIDTH 5 0
BBX 6 8 0 0
BITMAP
00002A
0009DB
0000D1
03BAB0
1C1870
680D30
966E00
5C6B80
ENDCHAR
STARTCHAR Emacron
ENCODING 274
SWIDTH 509 0
DWIDTH 5 0
BBX 6 9 0 0
BITMAP
005DD5
008CA1
07B1B3
0D3790
0D1000
09E400
5D1000
970800
4BB500
ENDCHAR
STARTCHAR emacron
ENCODING 275
SWIDTH 471 0
DWIDTH 4 0
BBX 5 7 0 0
BITMAP
05DD50
000000
04BB00
2D1D10
7BB600
970200
4CB400
ENDCHAR
STARTCHAR Ebreve
ENCODING 276
SWIDTH 509 0
DWIDTH 5 0
BBX 6 10 0 0
BITMAP
000504
000CB3
008CA1
07B1B3
0D3790
0D1000
09E400
5D1000
970800
4BB500
ENDCHAR
STARTCHAR ebreve
ENCODING 277
SWIDTH 471 0
DWIDTH 4 0
BBX 5 8 0 0
BITMAP
01A170
00BB10
000000
04BB00
2D1D10
7BB600
970200
4CB400
ENDCHAR
STARTCHAR Edotaccent
ENCODING 278
SWIDTH 509 0
DWIDTH 5 0
BBX 6 10 0 0
BITMAP
000520
000930
008CA1
07B1B3
0D3790
0D1000
09E400
5D1000
970800
4BB500
ENDCHAR
STARTCHAR edotaccent
ENCODING 279
SWIDTH 471 0
DWIDTH 4 0
BBX 5 8 0 0
BITMAP
006A00
001200
000000
04BB00
2D1D10
7BB600
970200
4CB400
ENDCHAR
STARTCHAR Eogonek
ENCODING 280
SWIDTH 509 0
DWIDTH 5 0
BBX 6 10 0 -2
BITMAP
008CA1
07B1B3
0D3790
0D1000
09E400
4D1000
970800
4C9300
081000
0C4000
ENDCHAR
STARTCHAR eogonek
ENCODING 281
SWIDTH 471 0
DWIDTH 4 0
BBX 5 7 0 -2
BITMAP
04AC00
1D1D10
7BA600
971200
4CB300
072000
0B6000
ENDCHAR
STARTCHAR Ecaron
ENCODING 282
SWIDTH 509 0
DWIDTH 5 0
BBX 6 10 0 0
BITMAP
001514
000972
008CA1
07B1B3
0D3790
0D1000
09E400
5D1000
970800
4BB500
ENDCHAR
STARTCHAR ecaron
ENCODING 283
SWIDTH 471 0
DWIDTH 4 0
BBX 5 8 0 0
BITMAP
00A0A0
009A50
001000
04BB00
2D1D10
7BB600
970200
4CB400
ENDCHAR
STARTCHAR Gcircumflex
ENCODING 284
SWIDTH 598 0
DWIDTH 5 0
BBX 6 10 0 0
BITMAP
000045
00068C
003BB2
02D257
0B60B5
2E04D0
6A0100
871CE3
780930
1CA600
ENDCHAR
STARTCHAR gcircumflex
ENCODING 285
SWIDTH 526 0
DWIDTH 5 0
BBX 5 11 0 -3
BITMAP
000220
004A90
015050
04A970
2D1870
880D30
A57D00
5CB800
00B200
196000
120000
ENDCHAR
STARTCHAR Gbreve
ENCODING 286
SWIDTH 598 0
DWIDTH 5 0
BBX 7 10 0 0
BITMAP
00023220
0003C910
003BB200
02D25700
0B60B500
2E04D000
6A010000
871CE300
78093000
1CA60000
ENDCHAR
STARTCHAR gbreve
ENCODING 287
SWIDTH 526 0
DWIDTH 5 0
BBX 5 11 0 -3
BITMAP
008280
006C50
000000
04A970
2D1870
880D30
A57D00
5CB800
00B200
196000
120000
ENDCHAR
STARTCHAR Gdotaccent
ENCODING 288
SWIDTH 598 0
DWIDTH 5 0
BBX 6 10 0 0
BITMAP
000160
0001B1
003BB2
02D257
0B60B5
2E04D0
6A0100
871CE3
780930
1CA600
ENDCHAR
STARTCHAR gdotaccent
ENCODING 289
SWIDTH 526 0
DWIDTH 5 0
BBX 5 11 0 -3
BITMAP
001E20
000300
000000
04A970
2D1870
880D30
A57D00
5CB800
00B200
196000
120000
ENDCHAR
STARTCHAR Gcommaaccent
ENCODING 290
SWIDTH 598 0
DWIDTH 5 0
BBX 6 11 0 -3
BITMAP
003BB2
02D257
0B60B5
2E04D0
6A0100
871CE3
780930
1CA600
060000
0D1000
270000
ENDCHAR
STARTCHAR gcommaaccent
ENCODING 291
SWIDTH 526 0
DWIDTH 5 0
BBX 5 11 0 -3
BITMAP
000720
000E00
000100
04A970
2D1870
880D30
A57D00
5CB800
00B200
196000
120000
ENDCHAR
STARTCHAR Hcircumflex
ENCODING 292
SWIDTH 668 0
DWIDTH 6 0
BBX 8 10 -1 0
BITMAP
00000810
0001A870
01CC0083
001E00C3
004C00E0
009903B0
01E31A20
02C01D00
09604A00
2A004D30
ENDCHAR
STARTCHAR hcircumflex
ENCODING 293
SWIDTH 555 0
DWIDTH 5 0
BBX 5 10 0 0
BITMAP
006700
094B00
01B000
03C000
078000
0A6D70
0D9880
5E2D20
A63C00
C12D40
ENDCHAR
STARTCHAR Hbar
ENCODING 294
SWIDTH 668 0
DWIDTH 6 0
BBX 8 8 -1 0
BITMAP
01CC0083
001E00B3
03CECDFA
007903B0
01E96B90
02E00D10
08703A00
2B004D30
ENDCHAR
STARTCHAR hbar
ENCODING 295
SWIDTH 555 0
DWIDTH 5 0
BBX 5 8 0 0
BITMAP
00C000
08E910
059000
096D70
0D9880
3E2D20
963C00
C12D40
ENDCHAR
STARTCHAR Itilde
ENCODING 296
SWIDTH 327 0
DWIDTH 3 0
BBX 5 10 0 0
BITMAP
04D260
065C20
0BD100
00E100
02E000
05A000
096000
0E1000
690000
B10000
ENDCHAR
STARTCHAR itilde
ENCODING 297
SWIDTH 286 0
DWIDTH 3 0
BBX 4 8 0 0
BITMAP
2D66
52C5
0000
0D30
0D10
4900
9400
9A00
ENDCHAR
STARTCHAR Imacron
ENCODING 298
SWIDTH 327 0
DWIDTH 3 0
BBX 5 9 0 0
BITMAP
08DD30
0BD100
00E100
02E000
05A000
096000
0E1000
690000
B10000
ENDCHAR
STARTCHAR imacron
ENCODING 299
SWIDTH 286 0
DWIDTH 3 0
BBX 4 7 0 0
BITMAP
5DD5
0000
0D30
0D10
4900
9400
9A00
ENDCHAR
STARTCHAR Ibreve
ENCODING 300
SWIDTH 327 0
DWIDTH 3 0
BBX 5 10 0 0
BITMAP
013130
02CA10
0BD100
00E100
02E000
05A000
096000
0E1000
690000
B10000
ENDCHAR
STARTCHAR ibreve
ENCODING 301
SWIDTH 286 0
DWIDTH 3 0
BBX 4 8 0 0
BITMAP
0A17
0AB2
0000
0D30
0D10
4900
9400
9A00
ENDCHAR
STARTCHAR Iogonek
ENCODING 302
SWIDTH 327 0
DWIDTH 3 0
BBX 6 10 -2 -2
BITMAP
000BD1
0000E1
0002D0
000690
000B40
001D00
009500
037000
1B0000
2C3000
ENDCHAR
STARTCHAR iogonek
ENCODING 303
SWIDTH 297 0
DWIDTH 3 0
BBX 4 11 -1 -3
BITMAP
004D
0003
0000
00C4
00C2
02C0
0770
0990
0660
1B00
2C30
ENDCHAR
STARTCHAR Idotaccent
ENCODING 304
SWIDTH 327 0
DWIDTH 3 0
BBX 4 10 0 0
BITMAP
0061
00B1
0BD1
00E1
02E0
05A0
0960
0E10
6900
B100
ENDCHAR
STARTCHAR dotlessi
ENCODING 305
SWIDTH 286 0
DWIDTH 3 0
BBX 3 5 0 0
BITMAP
0D30
0D10
4900
9400
9A00
ENDCHAR
STARTCHAR IJ
ENCODING 306
SWIDTH 720 0
DWIDTH 6 0
BBX 7 11 0 -3
BITMAP
0BD3BC80
00E775A0
02E00880
05A00C40
09601E10
0E106B00
6900C500
B103D000
000A6000
005B0000
04A10000
ENDCHAR
STARTCHAR ij
ENCODING 307
SWIDTH 567 0
DWIDTH 5 0
BBX 6 11 0 -3
BITMAP
05C1E2
012030
000000
0D36A0
0D15A0
490870
940B30
9A1D00
006700
01C100
093000
ENDCHAR
STARTCHAR Jcircumflex
ENCODING 308
SWIDTH 393 0
DWIDTH 4 0
BBX 7 13 -2 -3
BITMAP
00000710
0001A880
002AC900
00584B00
00007900
0000B500
0001E100
0005B000
000B6000
002E1000
00970000
04C00000
4B100000
ENDCHAR
STARTCHAR jcircumflex
ENCODING 309
SWIDTH 282 0
DWIDTH 3 0
BBX 6 10 -2 -3
BITMAP
0002B0
006793
000E20
000D10
001D00
005A00
009500
01D000
076000
480000
ENDCHAR
STARTCHAR Kcommaaccent
ENCODING 310
SWIDTH 616 0
DWIDTH 6 0
BBX 7 11 -1 -3
BITMAP
03D904A0
004C05B0
00690C40
00A69500
00EC4000
04C89000
0A61E400
4A006D30
00510000
00A40000
00900000
ENDCHAR
STARTCHAR kcommaaccent
ENCODING 311
SWIDTH 497 0
DWIDTH 4 0
BBX 5 11 0 -3
BITMAP
005000
01E000
04A000
085960
0B3C30
2EB200
88D000
C09C10
160000
1D0000
450000
ENDCHAR
STARTCHAR kgreenlandic
ENCODING 312
SWIDTH 497 0
DWIDTH 4 0
BBX 5 5 0 0
BITMAP
0D2870
0D3C40
4EB200
99D100
C18C20
ENDCHAR
STARTCHAR Lacute
ENCODING 313
SWIDTH 517 0
DWIDTH 5 0
BBX 7 10 -1 0
BITMAP
00000430
00001B20
0003B900
000D2B00
005B3D00
00B6D500
01E10000
05A00000
0B433000
1EBAC100
ENDCHAR
STARTCHAR lacute
ENCODING 314
SWIDTH 279 0
DWIDTH 3 0
BBX 4 10 0 0
BITMAP
0007
0059
01A0
0590
0850
0D10
2C00
6700
A400
8B00
ENDCHAR
STARTCHAR Lcommaaccent
ENCODING 315
SWIDTH 517 0
DWIDTH 5 0
BBX 6 11 -1 -3
BITMAP
0003B9
000D2B
005B3D
00B6D5
01E100
05A000
0B4330
1EBAC1
024000
059000
072000
ENDCHAR
STARTCHAR lcommaaccent
ENCODING 316
SWIDTH 279 0
DWIDTH 3 0
BBX 3 11 0 -3
BITMAP
0050
02C0
0680
0A40
1D00
5800
9400
8B00
4200
9500
9000
ENDCHAR
STARTCHAR Lcaron
ENCODING 317
SWIDTH 517 0
DWIDTH 5 0
BBX 8 10 -1 0
BITMAP
00000015
0000002A
0003B952
000D2B00
005B3D00
00B6D500
01E10000
05A00000
0B433000
1EBAC100
ENDCHAR
STARTCHAR lcaron
ENCODING 318
SWIDTH 467 0
DWIDTH 4 0
BBX 5 8 0 0
BITMAP
01B0D0
03B290
077200
0B2000
1C0000
680000
940000
8B0000
ENDCHAR
STARTCHAR Ldot
ENCODING 319
SWIDTH 668 0
DWIDTH 6 0
BBX 8 8 -1 0
BITMAP
0003B900
000D2B00
005B3D00
00B6D500
01E102F1
05A00020
0B433000
1EBAC100
ENDCHAR
STARTCHAR ldot
ENCODING 320
SWIDTH 489 0
DWIDTH 4 0
BBX 5 8 0 0
BITMAP
01B000
03B000
077000
0B2000
1C1E30
680400
940000
8B0000
ENDCHAR
STARTCHAR Lslash
ENCODING 321
SWIDTH 517 0
DWIDTH 5 0
BBX 6 8 -1 0
BITMAP
0003B9
000D2B
005A5C
00B5B3
03EC00
0A9000
0A4540
1EBAC2
ENDCHAR
STARTCHAR lslash
ENCODING 322
SWIDTH 279 0
DWIDTH 3 0
BBX 4 8 0 0
BITMAP
06E9
04A0
0860
0C20
2C00
6800
A400
8B00
ENDCHAR
STARTCHAR Nacute
ENCODING 323
SWIDTH 708 0
DWIDTH 6 0
BBX 7 10 0 0
BITMAP
00000150
00000950
005B05B0
01CB02E0
087B04A0
0B3C0850
481E0B00
840E5600
B20AD100
A003A000
ENDCHAR
STARTCHAR nacute
ENCODING 324
SWIDTH 561 0
DWIDTH 5 0
BBX 5 8 0 0
BITMAP
000150
000960
001400
0D5D80
0DA780
3E2C30
972C00
C11D50
ENDCHAR
STARTCHAR Ncommaaccent
ENCODING 325
SWIDTH 708 0
DWIDTH 6 0
BBX 7 11 0 -3
BITMAP
005B05B0
01CB02E0
087B04A0
0B3C0850
481E0B00
840E5600
B20AD100
A003A000
00510000
00B30000
01900000
ENDCHAR
STARTCHAR ncommaaccent
ENCODING 326
SWIDTH 561 0
DWIDTH 5 0
BBX 5 8 0 -3
BITMAP
0D5D80
0DA780
3E2C30
972C00
C11D50
060000
0D0000
370000
ENDCHAR
STARTCHAR Ncaron
ENCODING 327
SWIDTH 708 0
DWIDTH 6 0
BBX 7 10 0 0
BITMAP
00005150
00004940
005B05B0
01CB02E0
087B04A0
0B3C0850
481E0B00
840E5600
B20AD100
A003A000
ENDCHAR
STARTCHAR ncaron
ENCODING 328
SWIDTH 561 0
DWIDTH 5 0
BBX 6 8 0 0
BITMAP
007455
004C80
000100
0D5D80
0DA780
3E2C30
972C00
C11D50
ENDCHAR
STARTCHAR Eng
ENCODING 330
SWIDTH 698 0
DWIDTH 6 0
BBX 7 11 0 -3
BITMAP
006A0690
02DA03D0
097904B0
1B5A0770
573C0A30
931F1C00
C10BA600
A005D100
000B5000
006A0000
05900000
ENDCHAR
STARTCHAR eng
ENCODING 331
SWIDTH 561 0
DWIDTH 5 0
BBX 5 8 0 -3
BITMAP
0D5D80
0DA590
3E2860
970D20
C13B00
00A400
04B000
1B1000
ENDCHAR
STARTCHAR Omacron
ENCODING 332
SWIDTH 655 0
DWIDTH 6 0
BBX 7 9 0 0
BITMAP
0008DD30
002BB700
02D30D00
09800E00
1E102D00
5B007900
6800D300
58088000
1AA80000
ENDCHAR
STARTCHAR omacron
ENCODING 333
SWIDTH 514 0
DWIDTH 5 0
BBX 5 7 0 0
BITMAP
01CDB0
000000
05AB10
2D1A40
880D20
A55B00
5BA200
ENDCHAR
STARTCHAR Obreve
ENCODING 334
SWIDTH 655 0
DWIDTH 6 0
BBX 7 10 0 0
BITMAP
00014130
0002CA10
002BB700
02D30D00
09800E00
1E102D00
5B007900
6800D300
58088000
1AA80000
ENDCHAR
STARTCHAR obreve
ENCODING 335
SWIDTH 514 0
DWIDTH 5 0
BBX 5 8 0 0
BITMAP
008270
006C50
000000
05AB10
2D1A40
880D20
A55B00
5BA200
ENDCHAR
STARTCHAR Ohungarumlaut
ENCODING 336
SWIDTH 655 0
DWIDTH 6 0
BBX 7 10 0 0
BITMAP
00006150
00038830
002BB700
02D30D00
09800E00
1E102D00
5B007900
6800D300
58088000
1AA80000
ENDCHAR
STARTCHAR ohungarumlaut
ENCODING 337
SWIDTH 514 0
DWIDTH 5 0
BBX 6 8 0 0
BITMAP
001551
0086B1
014310
05AB10
2D1A40
880D20
A55B00
5BA200
ENDCHAR
STARTCHAR OE
ENCODING 338
SWIDTH 900 0
DWIDTH 8 0
BBX 9 8 1 0
BITMAP
008BB9CA10
09909B1B20
3D10E27800
9700D10000
D200AE3000
E005D10000
D02E618000
6AB7DD5000
ENDCHAR
STARTCHAR oe
ENCODING 339
SWIDTH 777 0
DWIDTH 7 0
BBX 7 5 0 0
BITMAP
03BB69B0
1D37D1E0
5B0ABB60
782F6020
2BA7CB30
ENDCHAR
STARTCHAR Racute
ENCODING 340
SWIDTH 623 0
DWIDTH 6 0
BBX 7 10 -1 0
BITMAP
00000420
00002A10
007CBA10
00780680
003D0780
00883D20
00CDB300
02E99000
0881E200
2B106D20
ENDCHAR
STARTCHAR racute
ENCODING 341
SWIDTH 407 0
DWIDTH 4 0
BBX 5 8 0 0
BITMAP
000610
002C10
004100
1E4D00
0D8400
3E1000
870000
B20000
ENDCHAR
STARTCHAR Rcommaaccent
ENCODING 342
SWIDTH 623 0
DWIDTH 6 0
BBX 7 11 -1 -3
BITMAP
007CBA10
00780680
003D0780
00883D20
00CDB300
02E99000
0881E200
2B106D20
00510000
00C20000
01800000
ENDCHAR
STARTCHAR rcommaaccent
ENCODING 343
SWIDTH 407 0
DWIDTH 4 0
BBX 5 8 -1 -3
BITMAP
01E4D0
00D840
03E100
088000
0B2000
150000
2C0000
550000
ENDCHAR
STARTCHAR Rcaron
ENCODING 344
SWIDTH 623 0
DWIDTH 6 0
BBX 7 10 -1 0
BITMAP
00016140
00009820
007CBA10
00780680
003D0780
00883D20
00CDB300
02E99000
0881E200
2B106D20
ENDCHAR
STARTCHAR rcaron
ENCODING 345
SWIDTH 407 0
DWIDTH 4 0
BBX 5 8 0 0
BITMAP
01A190
00C930
001000
1E4D00
0D8400
3E1000
870000
B20000
ENDCHAR
STARTCHAR Sacute
ENCODING 346
SWIDTH 474 0
DWIDTH 4 0
BBX 6 10 0 0
BITMAP
000052
0002B1
01BB60
0950D0
0E14C0
0E3840
09B000
11E200
A29300
7B8000
ENDCHAR
STARTCHAR sacute
ENCODING 347
SWIDTH 423 0
DWIDTH 4 0
BBX 5 8 0 0
BITMAP
000510
002C10
004100
09A800
1D1600
0C6000
54C000
AA6000
ENDCHAR
STARTCHAR Scircumflex
ENCODING 348
SWIDTH 474 0
DWIDTH 4 0
BBX 6 10 0 0
BITMAP
000170
0039A3
01BB60
0950D0
0E14C0
0E3840
09B000
11E200
A29300
7B8000
ENDCHAR
STARTCHAR scircumflex
ENCODING 349
SWIDTH 423 0
DWIDTH 4 0
BBX 5 8 0 0
BITMAP
000300
018C20
042330
09A800
1D1600
0C6000
54C000
AA6000
ENDCHAR
STARTCHAR Scedilla
ENCODING 350
SWIDTH 474 0
DWIDTH 4 0
BBX 5 10 0 -2
BITMAP
01BB70
0A50D0
0E16B0
0D4620
06D000
51B300
B5B100
2C2000
1C0000
460000
ENDCHAR
STARTCHAR scedilla
ENCODING 351
SWIDTH 423 0
DWIDTH 4 0
BBX 4 7 0 -2
BITMAP
09A8
1D16
0C60
74C0
8A60
1900
9600
ENDCHAR
STARTCHAR Scaron
ENCODING 352
SWIDTH 474 0
DWIDTH 4 0
BBX 6 10 0 0
BITMAP
001514
000972
01BB60
0950D0
0E14C0
0E3840
09B000
11E200
A29300
7B8000
ENDCHAR
STARTCHAR scaron
ENCODING 353
SWIDTH 423 0
DWIDTH 4 0
BBX 5 8 0 0
BITMAP
00A0A0
00AA40
001000
09A800
1D1600
0C6000
54C000
AA6000
ENDCHAR
STARTCHAR Tcommaaccent
ENCODING 354
SWIDTH 471 0
DWIDTH 4 0
BBX 6 11 0 -3
BITMAP
1DC605
592EC5
237A00
00B500
00E100
04B000
0A5000
3A0000
150000
1D0000
450000
ENDCHAR
STARTCHAR tcommaaccent
ENCODING 355
SWIDTH 358 0
DWIDTH 3 0
BBX 4 9 0 -3
BITMAP
0490
3EB4
1D00
5900
8620
5D60
4200
8600
9100
ENDCHAR
STARTCHAR Tcaron
ENCODING 356
SWIDTH 471 0
DWIDTH 4 0
BBX 6 10 0 0
BITMAP
000615
000693
1DC605
592EC5
237A00
00B500
00E100
04B000
0A5000
3A0000
ENDCHAR
STARTCHAR tcaron
ENCODING 357
SWIDTH 497 0
DWIDTH 4 0
BBX 6 8 0 0
BITMAP
000085
005091
01D120
0BD700
0B4000
0D0000
2B1000
1DA000
ENDCHAR
STARTCHAR Tbar
ENCODING 358
SWIDTH 471 0
DWIDTH 4 0
BBX 6 8 0 0
BITMAP
1DC605
592EC5
236A00
00A600
3BF900
03C000
086000
3A0000
ENDCHAR
STARTCHAR tbar
ENCODING 359
SWIDTH 358 0
DWIDTH 3 0
BBX 4 7 0 0
BITMAP
0050
0690
3EB4
0E00
7EA2
7610
5D60
ENDCHAR
STARTCHAR Utilde
ENCODING 360
SWIDTH 624 0
DWIDTH 6 0
BBX 7 10 0 0
BITMAP
000B8510
0033B700
03E00B20
02D03D00
07809800
0D21F300
3B08E000
862BB000
C3968000
9C33D400
ENDCHAR
STARTCHAR utilde
ENCODING 361
SWIDTH 553 0
DWIDTH 5 0
BBX 6 8 0 0
BITMAP
006D25
0066B1
000000
0C32B0
0D1A70
5B3E10
A69B00
AB2D40
ENDCHAR
STARTCHAR Umacron
ENCODING 362
SWIDTH 624 0
DWIDTH 6 0
BBX 7 9 0 0
BITMAP
002CD900
03E00B20
02D03D00
07809800
0D21F300
3B08E000
862BB000
C3968000
9C33D400
ENDCHAR
STARTCHAR umacron
ENCODING 363
SWIDTH 553 0
DWIDTH 5 0
BBX 6 7 0 0
BITMAP
00ADC1
000000
0C32B0
0D1A70
5B3E10
A69B00
AB2D40
ENDCHAR
STARTCHAR Ubreve
ENCODING 364
SWIDTH 624 0
DWIDTH 6 0
BBX 7 10 0 0
BITMAP
00040400
0008C600
03E00B20
02D03D00
07809800
0D21F300
3B08E000
862BB000
C3968000
9C33D400
ENDCHAR
STARTCHAR ubreve
ENCODING 365
SWIDTH 553 0
DWIDTH 5 0
BBX 6 8 0 0
BITMAP
005553
003C80
000000
0C32B0
0D1A70
5B3E10
A69B00
AB2D40
ENDCHAR
STARTCHAR Uring
ENCODING 366
SWIDTH 624 0
DWIDTH 6 0
BBX 7 10 0 0
BITMAP
00038500
000B5800
03E24B20
02D03D00
07809800
0D21F300
3B08E000
862BB000
C3968000
9C33D400
ENDCHAR
STARTCHAR uring
ENCODING 367
SWIDTH 553 0
DWIDTH 5 0
BBX 5 8 0 0
BITMAP
0019A0
0065B0
002840
0C32B0
0D1A70
5B3E10
A69B00
AB2D40
ENDCHAR
STARTCHAR Uhungarumlaut
ENCODING 368
SWIDTH 624 0
DWIDTH 6 0
BBX 7 10 0 0
BITMAP
00024600
00095900
03E00B20
02D03D00
07809800
0D21F300
3B08E000
862BB000
C3968000
9C33D400
ENDCHAR
STARTCHAR uhungarumlaut
ENCODING 369
SWIDTH 553 0
DWIDTH 5 0
BBX 6 8 0 0
BITMAP
000633
0058A2
005220
0C32B0
0D1A70
5B3E10
A69B00
AB2D40
ENDCHAR
STARTCHAR Uogonek
ENCODING 370
SWIDTH 684 0
DWIDTH 6 0
BBX 7 10 0 -2
BITMAP
00D30760
00D20D20
03C05C00
0960C800
0D14F300
4A09D000
8765C000
5D50D500
00036000
0007A000
ENDCHAR
STARTCHAR uogonek
ENCODING 371
SWIDTH 553 0
DWIDTH 5 0
BBX 5 7 0 -2
BITMAP
0C32B0
0D1A70
5B3E10
A69B00
AB2E30
004500
009900
ENDCHAR
STARTCHAR Wcircumflex
ENCODING 372
SWIDTH 941 0
DWIDTH 8 0
BBX 9 10 0 0
BITMAP
0000036000
000059B100
2CD10005B0
02C30413E0
04D07D12D0
0A74F604A0
0E2CE10950
4B85D01C00
5A91C0A400
2D10BA4000
ENDCHAR
STARTCHAR wcircumflex
ENCODING 373
SWIDTH 750 0
DWIDTH 7 0
BBX 7 8 0 0
BITMAP
00003100
0006B500
00341400
1D334770
0D1C4590
2B5D0750
889B1A00
991DA100
ENDCHAR
STARTCHAR Ycircumflex
ENCODING 374
SWIDTH 580 0
DWIDTH 5 0
BBX 7 13 0 -3
BITMAP
00008100
001A8700
03D00B20
03D03D00
0880A800
0D22F300
4B08D000
962C9000
C39A4000
9C4C0000
00860000
03B00000
4A100000
ENDCHAR
STARTCHAR ycircumflex
ENCODING 375
SWIDTH 549 0
DWIDTH 5 0
BBX 5 11 0 -3
BITMAP
000220
004A90
015050
0C41C0
0D2890
4B2E40
969D00
9C7800
01C100
2A4000
110000
ENDCHAR
STARTCHAR Ydieresis
ENCODING 376
SWIDTH 580 0
DWIDTH 5 0
BBX 7 12 0 -3
BITMAP
003D3D00
03E30E20
03D03D00
0880A800
0D22F300
4B08D000
962C9000
C39A4000
9C4C0000
00860000
03B00000
4A100000
ENDCHAR
STARTCHAR Zacute
ENCODING 377
SWIDTH 501 0
DWIDTH 5 0
BBX 7 10 -1 0
BITMAP
00000700
00006800
00804D30
00AFCE20
00018700
0006A000
004D1000
02D30000
0B600000
1E9DD100
ENDCHAR
STARTCHAR zacute
ENCODING 378
SWIDTH 430 0
DWIDTH 4 0
BBX 5 8 0 0
BITMAP
000520
001C20
003200
0B9D10
009900
099000
791000
CAC300
ENDCHAR
STARTCHAR Zdotaccent
ENCODING 379
SWIDTH 501 0
DWIDTH 5 0
BBX 7 10 -1 0
BITMAP
00016000
0001A000
00804D30
00AFCE20
00018700
0006A000
004D1000
02D30000
0B600000
1E9DD100
ENDCHAR
STARTCHAR zdotaccent
ENCODING 380
SWIDTH 430 0
DWIDTH 4 0
BBX 5 8 0 0
BITMAP
00A600
002100
000000
0B9D10
009900
099000
791000
CAC300
ENDCHAR
STARTCHAR Zcaron
ENCODING 381
SWIDTH 501 0
DWIDTH 5 0
BBX 7 10 -1 0
BITMAP
00043220
0001A600
00804D30
00AFCE20
00018700
0006A000
004D1000
02D30000
0B600000
1E9DD100
ENDCHAR
STARTCHAR zcaron
ENCODING 382
SWIDTH 430 0
DWIDTH 4 0
BBX 5 8 0 0
BITMAP
029280
00CA20
001000
0B9D10
009900
099000
791000
CAC300
ENDCHAR
STARTCHAR florin
ENCODING 402
SWIDTH 466 0
DWIDTH 4 0
BBX 8 11 -2 -3
BITMAP
00000790
00004963
0000B3D2
0001D030
001AFB00
001C6100
000D1000
002D0000
00680000
41B30000
7B800000
ENDCHAR
STARTCHAR AEacute
ENCODING 508
SWIDTH 878 0
DWIDTH 8 0
BBX 10 10 -1 0
BITMAP
0000000510
0000003A10
00002BDCA4
0000B5E268
00076882C1
001C085000
01BDEFF700
03C01D5000
0A404C0620
69001BD900
ENDCHAR
STARTCHAR aeacute
ENCODING 509
SWIDTH 770 0
DWIDTH 7 0
BBX 7 8 0 0
BITMAP
00005200
0001C200
00032000
04BADB80
2C1A85B0
871E8D30
A57E3110
6C58BA10
ENDCHAR
STARTCHAR Scommaaccent
ENCODING 536
SWIDTH 474 0
DWIDTH 4 0
BBX 5 11 0 -3
BITMAP
01BB60
0950D0
0E14C0
0E3840
09B000
11E200
A29300
7B8000
160000
1D0000
460000
ENDCHAR
STARTCHAR scommaaccent
ENCODING 537
SWIDTH 423 0
DWIDTH 4 0
BBX 4 8 0 -3
BITMAP
09A8
1D16
0C60
54C0
AA60
2400
5900
7200
ENDCHAR
STARTCHAR dotlessj
ENCODING 567
SWIDTH 277 0
DWIDTH 3 0
BBX 5 8 -2 -3
BITMAP
001E20
000E10
002D00
005900
00A400
01D000
085000
480000
ENDCHAR
STARTCHAR circumflex
ENCODING 710
SWIDTH 354 0
DWIDTH 3 0
BBX 4 2 0 6
BITMAP
04A0
76B1
ENDCHAR
STARTCHAR caron
ENCODING 711
SWIDTH 381 0
DWIDTH 3 0
BBX 4 2 0 6
BITMAP
6574
3B50
ENDCHAR
STARTCHAR breve
ENCODING 728
SWIDTH 344 0
DWIDTH 3 0
BBX 4 2 0 6
BITMAP
7371
5C60
ENDCHAR
STARTCHAR dotaccent
ENCODING 729
SWIDTH 217 0
DWIDTH 2 0
BBX 2 2 0 6
BITMAP
4C
13
ENDCHAR
STARTCHAR ring
ENCODING 730
SWIDTH 402 0
DWIDTH 4 0
BBX 3 3 1 5
BITMAP
5A60
B480
6810
ENDCHAR
STARTCHAR ogonek
ENCODING 731
SWIDTH 311 0
DWIDTH 3 0
BBX 3 3 0 -3
BITMAP
0820
6600
7A00
ENDCHAR
STARTCHAR tilde
ENCODING 732
SWIDTH 397 0
DWIDTH 4 0
BBX 4 2 0 6
BITMAP
1C76
52C5
ENDCHAR
STARTCHAR hungarumlaut
ENCODING 733
SWIDTH 392 0
DWIDTH 4 0
BBX 4 3 0 5
BITMAP
0101
0B48
6691
ENDCHAR
STARTCHAR pi
ENCODING 960
SWIDTH 640 0
DWIDTH 6 0
BBX 6 5 0 0
BITMAP
3BFFFA
037590
0A2940
4B0D10
D30B80
ENDCHAR
STARTCHAR uni1E02
ENCODING 7682
SWIDTH 551 0
DWIDTH 5 0
BBX 6 10 0 0
BITMAP
000530
000840
08CAA1
186095
08A0B4
0E37C0
4FBE10
760940
840C30
4BA500
ENDCHAR
STARTCHAR uni1E03
ENCODING 7683
SWIDTH 525 0
DWIDTH 5 0
BBX 5 8 0 0
BITMAP
02A4D0
069030
094000
0D9D20
3E2A60
780C40
934C00
5BA200
ENDCHAR
STARTCHAR uni1E0A
ENCODING 7690
SWIDTH 630 0
DWIDTH 6 0
BBX 6 10 0 0
BITMAP
000340
000660
0ACB91
055079
04D02C
0A604A
1E1096
5A03D1
872D30
5CB300
ENDCHAR
STARTCHAR uni1E0B
ENCODING 7691
SWIDTH 557 0
DWIDTH 5 0
BBX 6 8 0 0
BITMAP
03D02A
003086
0000D1
03BAB0
1C1870
680D30
966E00
5C6B80
ENDCHAR
STARTCHAR uni1E1E
ENCODING 7710
SWIDTH 518 0
DWIDTH 5 0
BBX 6 10 0 0
BITMAP
000250
000580
2DC505
784DC4
32A500
00E200
08FE40
098000
0D2000
760000
ENDCHAR
STARTCHAR uni1E1F
ENCODING 7711
SWIDTH 393 0
DWIDTH 4 0
BBX 6 11 -1 -1
BITMAP
0004D0
0002B6
000B4C
001C46
005900
03CE90
02E100
02C000
078000
0B3000
1B0000
ENDCHAR
STARTCHAR uni1E40
ENCODING 7744
SWIDTH 931 0
DWIDTH 8 0
BBX 10 10 -1 0
BITMAP
0000000610
0000000B10
00006E12C5
00049C0AC2
000B6857D0
0056A5B690
00B1D57950
0580E91D20
0C11E80E00
9600D10BB0
ENDCHAR
STARTCHAR uni1E41
ENCODING 7745
SWIDTH 814 0
DWIDTH 7 0
BBX 7 8 0 0
BITMAP
0001E200
00003000
00000000
0D4D69C0
0DA6C5D0
3E2A7870
972D0D10
C1570B80
ENDCHAR
STARTCHAR uni1E56
ENCODING 7766
SWIDTH 553 0
DWIDTH 5 0
BBX 7 10 -1 0
BITMAP
00001600
00003A00
007CAA10
00A50770
002D0870
00884D10
00DCA200
03C00000
09600000
2A000000
ENDCHAR
STARTCHAR uni1E57
ENCODING 7767
SWIDTH 550 0
DWIDTH 5 0
BBX 6 11 -1 -3
BITMAP
0005C0
000120
000000
01D7C5
01F669
04C087
0771D1
0BAB30
0C0000
490000
840000
ENDCHAR
STARTCHAR uni1E60
ENCODING 7776
SWIDTH 474 0
DWIDTH 4 0
BBX 5 10 0 0
BITMAP
000520
000930
01BB60
0950D0
0E14C0
0E3840
09B000
11E200
A29300
7B8000
ENDCHAR
STARTCHAR uni1E61
ENCODING 7777
SWIDTH 423 0
DWIDTH 4 0
BBX 4 8 0 0
BITMAP
007A
0012
0000
09A8
1D16
0C60
54C0
AA60
ENDCHAR
STARTCHAR uni1E6A
ENCODING 7786
SWIDTH 430 0
DWIDTH 4 0
BBX 6 10 0 0
BITMAP
000520
000940
3EB405
966EC2
41A600
00E200
03D000
078000
0D2000
670000
ENDCHAR
STARTCHAR uni1E6B
ENCODING 7787
SWIDTH 358 0
DWIDTH 3 0
BBX 4 8 0 0
BITMAP
0088
0061
02D0
1DC6
0D20
2C00
4920
2D80
ENDCHAR
STARTCHAR Wgrave
ENCODING 7808
SWIDTH 941 0
DWIDTH 8 0
BBX 9 10 0 0
BITMAP
0000140000
00001B2000
2CD10005B0
02C30413E0
04D07D12D0
0A74F604A0
0E2CE10950
4B85D01C00
5A91C0A400
2D10BA4000
ENDCHAR
STARTCHAR wgrave
ENCODING 7809
SWIDTH 750 0
DWIDTH 7 0
BBX 7 8 0 0
BITMAP
00085000
00076000
00004000
1D334770
0D1C4590
2B5D0750
889B1A00
991DA100
ENDCHAR
STARTCHAR Wacute
ENCODING 7810
SWIDTH 941 0
DWIDTH 8 0
BBX 9 10 0 0
BITMAP
0000006100
000003A000
2CD10005B0
02C30413E0
04D07D12D0
0A74F604A0
0E2CE10950
4B85D01C00
5A91C0A400
2D10BA4000
ENDCHAR
STARTCHAR wacute
ENCODING 7811
SWIDTH 750 0
DWIDTH 7 0
BBX 7 8 0 0
BITMAP
00006100
0002C100
00041000
1D334770
0D1C4590
2B5D0750
889B1A00
991DA100
ENDCHAR
STARTCHAR Wdieresis
ENCODING 7812
SWIDTH 941 0
DWIDTH 8 0
BBX 9 10 0 0
BITMAP
0000434300
0000757500
2CD10005B0
02C30413E0
04D07D12D0
0A74F604A0
0E2CE10950
4B85D01C00
5A91C0A400
2D10BA4000
ENDCHAR
STARTCHAR wdieresis
ENCODING 7813
SWIDTH 750 0
DWIDTH 7 0
BBX 7 8 0 0
BITMAP
004C4D00
00130300
00000000
1D334770
0D1C4590
2B5D0750
889B1A00
991DA100
ENDCHAR
STARTCHAR Ygrave
ENCODING 7922
SWIDTH 580 0
DWIDTH 5 0
BBX 7 13 0 -3
BITMAP
00041000
00077000
03D00B20
03D03D00
0880A800
0D22F300
4B08D000
962C9000
C39A4000
9C4C0000
00860000
03B00000
4A100000
ENDCHAR
STARTCHAR ygrave
ENCODING 7923
SWIDTH 549 0
DWIDTH 5 0
BBX 5 11 0 -3
BITMAP
005800
004900
000400
0C41C0
0D2890
4B2E40
969D00
9C7800
01C100
2A4000
110000
ENDCHAR
STARTCHAR endash
ENCODING 8211
SWIDTH 751 0
DWIDTH 7 0
BBX 7 1 0 3
BITMAP
1DDDDC10
ENDCHAR
STARTCHAR emdash
ENCODING 8212
SWIDTH 1066 0
DWIDTH 10 0
BBX 9 1 0 3
BITMAP
1DDDDDDDB0
ENDCHAR
STARTCHAR quoteleft
ENCODING 8216
SWIDTH 268 0
DWIDTH 2 0
BBX 2 3 1 6
BITMAP
04
84
A4
ENDCHAR
STARTCHAR quoteright
ENCODING 8217
SWIDTH 268 0
DWIDTH 2 0
BBX 2 3 1 6
BITMAP
15
2C
65
ENDCHAR
STARTCHAR quotesinglbase
ENCODING 8218
SWIDTH 268 0
DWIDTH 2 0
BBX 2 3 0 -1
BITMAP
33
68
82
ENDCHAR
STARTCHAR quotedblleft
ENCODING 8220
SWIDTH 485 0
DWIDTH 4 0
BBX 4 3 1 6
BITMAP
0414
66A2
95C1
ENDCHAR
STARTCHAR quotedblright
ENCODING 8221
SWIDTH 480 0
DWIDTH 4 0
BBX 4 3 1 6
BITMAP
0624
0E4A
5572
ENDCHAR
STARTCHAR quotedblbase
ENCODING 8222
SWIDTH 463 0
DWIDTH 4 0
BBX 4 3 0 -1
BITMAP
3351
68A4
8390
ENDCHAR
STARTCHAR dagger
ENCODING 8224
SWIDTH 488 0
DWIDTH 4 0
BBX 5 8 0 0
BITMAP
006800
019910
09FB30
01E100
04A000
085000
0B0000
260000
ENDCHAR
STARTCHAR daggerdbl
ENCODING 8225
SWIDTH 488 0
DWIDTH 4 0
BBX 5 8 0 0
BITMAP
006800
02AA20
07EA30
01E000
2AE600
095000
0B0000
260000
ENDCHAR
STARTCHAR bullet
ENCODING 8226
SWIDTH 437 0
DWIDTH 4 0
BBX 3 2 1 3
BITMAP
BD10
DD10
ENDCHAR
STARTCHAR ellipsis
ENCODING 8230
SWIDTH 810 0
DWIDTH 7 0
BBX 7 2 0 -1
BITMAP
A84E0C60
32140310
ENDCHAR
STARTCHAR perthousand
ENCODING 8240
SWIDTH 1184 0
DWIDTH 11 0
BBX 10 8 0 0
BITMAP
08B40A1000
2B58580000
4895C10000
1977600000
001B394197
0094D3A95D
03A2B58C2D
0920AA18A4
ENDCHAR
STARTCHAR guilsinglleft
ENCODING 8249
SWIDTH 413 0
DWIDTH 4 0
BBX 4 4 0 1
BITMAP
0182
2C40
2C10
0490
ENDCHAR
STARTCHAR guilsinglright
ENCODING 8250
SWIDTH 416 0
DWIDTH 4 0
BBX 4 4 0 1
BITMAP
0B20
03C1
06B1
4700
ENDCHAR
STARTCHAR fraction
ENCODING 8260
SWIDTH 580 0
DWIDTH 5 0
BBX 5 8 0 0
BITMAP
0000B0
000760
001C00
008500
01B000
094000
2B0000
830000
ENDCHAR
STARTCHAR Euro
ENCODING 8364
SWIDTH 622 0
DWIDTH 6 0
BBX 6 8 0 0
BITMAP
0005B8
003C1C
00C44D
03D055
0CD910
3EC600
0B5020
04CA60
ENDCHAR
STARTCHAR trademark
ENCODING 8482
SWIDTH 1084 0
DWIDTH 10 0
BBX 8 4 1 3
BITMAP
4BB76749
0741B8A9
0B087C67
08262736
ENDCHAR
STARTCHAR Omega
ENCODING 8486
SWIDTH 839 0
DWIDTH 8 0
BBX 8 7 0 0
BITMAP
01789500
0B500B50
3D0004C0
5C0003D0
2E1006A0
07700B20
7BD28BC1
ENDCHAR
STARTCHAR partialdiff
ENCODING 8706
SWIDTH 580 0
DWIDTH 5 0
BBX 6 8 0 0
BITMAP
000410
00A7A0
0050A2
06C9E1
4D13D0
970980
B43D10
6BB300
ENDCHAR
STARTCHAR Delta
ENCODING 8710
SWIDTH 663 0
DWIDTH 6 0
BBX 6 6 0 0
BITMAP
001300
008C00
037950
0912C0
4600A4
B877A9
ENDCHAR
STARTCHAR product
ENCODING 8719
SWIDTH 667 0
DWIDTH 6 0
BBX 6 8 0 -1
BITMAP
2977A4
5A0095
5A0095
5A0095
5A0095
5A0095
5A0095
360073
ENDCHAR
STARTCHAR summation
ENCODING 8721
SWIDTH 677 0
DWIDTH 6 0
BBX 6 8 0 -1
BITMAP
1B9884
0D7000
03E300
008B00
007700
059000
3B0000
7CCCC2
ENDCHAR
STARTCHAR minus
ENCODING 8722
SWIDTH 617 0
DWIDTH 6 0
BBX 5 1 0 3
BITMAP
399980
ENDCHAR
STARTCHAR radical
ENCODING 8730
SWIDTH 709 0
DWIDTH 6 0
BBX 7 9 0 0
BITMAP
00000040
000000D0
00000780
00001C10
05107600
6D51B000
06874000
02C90000
00D20000
ENDCHAR
STARTCHAR infinity
ENCODING 8734
SWIDTH 681 0
DWIDTH 6 0
BBX 6 3 0 2
BITMAP
186494
768D2A
4BC9B7
ENDCHAR
STARTCHAR integral
ENCODING 8747
SWIDTH 583 0
DWIDTH 5 0
BBX 8 11 -1 -2
BITMAP
00000360
00003C83
0000A4B2
0001D000
00069000
000B4000
001E0000
004A0000
45A50000
A4C00000
49200000
ENDCHAR
STARTCHAR approxequal
ENCODING 8776
SWIDTH 671 0
DWIDTH 6 0
BBX 6 5 0 1
BITMAP
001000
09D927
241A91
1AD434
524C80
ENDCHAR
STARTCHAR notequal
ENCODING 8800
SWIDTH 617 0
DWIDTH 6 0
BBX 6 7 0 0
BITMAP
000020
000480
188D91
029610
2ADA90
0A2000
140000
ENDCHAR
STARTCHAR lessequal
ENCODING 8804
SWIDTH 704 0
DWIDTH 6 0
BBX 5 6 0 0
BITMAP
000590
03A600
4E3000
02A810
000490
3AAA90
ENDCHAR
STARTCHAR greaterequal
ENCODING 8805
SWIDTH 617 0
DWIDTH 6 0
BBX 5 6 0 0
BITMAP
3A3000
018A20
0009B0
05B500
460000
4AAA80
ENDCHAR
STARTCHAR lozenge
ENCODING 9674
SWIDTH 580 0
DWIDTH 5 0
BBX 5 7 0 0
BITMAP
00A100
079900
1A0A30
8402A0
3A0750
086A00
01D200
ENDCHAR
STARTCHAR commaaccent
ENCODING 63171
SWIDTH 250 0
DWIDTH 2 0
BBX 2 3 0 -3
BITMAP
26
49
20
ENDCHAR
STARTCHAR ff
ENCODING 64256
SWIDTH 773 0
DWIDTH 7 0
BBX 10 10 -1 -1
BITMAP
0002960791
000B4C49A3
001C46A490
005900D000
03CDDEFC10
02E2077000
02C00B4000
07800E0000
0B305A0000
1B00930000
ENDCHAR
STARTCHAR fi
ENCODING 64257
SWIDTH 623 0
DWIDTH 6 0
BBX 7 10 -1 -2
BITMAP
00007850
000851C0
002C0460
019DBE40
04D30C10
01D02B00
04A08600
09507B00
0D100000
14000000
ENDCHAR
STARTCHAR fl
ENCODING 64258
SWIDTH 637 0
DWIDTH 6 0
BBX 7 10 -1 -2
BITMAP
00018860
000A50D0
003A02B0
01BE8770
02E10C20
01D02C00
05906800
0A505D20
1D100000
14000000
ENDCHAR
STARTCHAR .notdef
ENCODING -1
SWIDTH 896 0
DWIDTH 8 0
BBX 9 9 0 -1
BITMAP
005EEEEEB0
00CFEFEF90
01F9876F40
06F829FF10
0AFA2FFB00
0EC538E600
4FBED9F200
6FFFFFB000
0111110000
ENDCHAR
ENDFONT
